<?xml version="1.0" standalone="no"?>
<!DOCTYPE svg PUBLIC "-//W3C//DTD SVG 1.1//EN" "http://www.w3.org/Graphics/SVG/1.1/DTD/svg11.dtd" >
<!--
2013-9-30: Created.
-->
<svg>
<metadata>
Created by iconfont
</metadata>
<defs>

<font id="iconfont" horiz-adv-x="1024" >
  <font-face
    font-family="iconfont"
    font-weight="500"
    font-stretch="normal"
    units-per-em="1024"
    ascent="896"
    descent="-128"
  />
    <missing-glyph />
    
    <glyph glyph-name="x" unicode="x" horiz-adv-x="1001"
d="M281 543q-27 -1 -53 -1h-83q-18 0 -36.5 -6t-32.5 -18.5t-23 -32t-9 -45.5v-76h912v41q0 16 -0.5 30t-0.5 18q0 13 -5 29t-17 29.5t-31.5 22.5t-49.5 9h-133v-97h-438v97zM955 310v-52q0 -23 0.5 -52t0.5 -58t-10.5 -47.5t-26 -30t-33 -16t-31.5 -4.5q-14 -1 -29.5 -0.5
t-29.5 0.5h-32l-45 128h-439l-44 -128h-29h-34q-20 0 -45 1q-25 0 -41 9.5t-25.5 23t-13.5 29.5t-4 30v167h911zM163 247q-12 0 -21 -8.5t-9 -21.5t9 -21.5t21 -8.5q13 0 22 8.5t9 21.5t-9 21.5t-22 8.5zM316 123q-8 -26 -14 -48q-5 -19 -10.5 -37t-7.5 -25t-3 -15t1 -14.5
t9.5 -10.5t21.5 -4h37h67h81h80h64h36q23 0 34 12t2 38q-5 13 -9.5 30.5t-9.5 34.5q-5 19 -11 39h-368zM336 498v228q0 11 2.5 23t10 21.5t20.5 15.5t34 6h188q31 0 51.5 -14.5t20.5 -52.5v-227h-327z" />
    

    
    <glyph glyph-name="star" unicode="&#58906;" d="M956.742 464.115c-5.241 16.201-19.179 28.055-36.035 30.497l-254.931 44.791-114.003 229.438c-7.445 15.248-22.993 24.898-40.026 24.898-17.036 0-32.523-9.649-40.146-24.898l-113.945-229.438-254.871-46.339c-16.857-2.443-30.853-14.296-36.036-30.497-5.301-16.142-0.893-33.951 11.318-45.804l184.408-170.41-48.186-247.663c-2.859-16.737 3.931-33.834 17.81-43.721 13.245-13.245 40.563-6.908 47.054-3.514l232.595 113.646 231.106-113.646c6.491-3.394 32.167-11.373 47.053 3.514 13.76 9.887 20.787 26.983 17.87 43.721l-46.698 247.663 184.467 172.019c12.152 11.793 16.499 29.602 11.197 45.744z"  horiz-adv-x="1024" />

    
    <glyph glyph-name="star_full" unicode="&#58919;" d="M958.733 484.651l-299.475 57.753-147.26 268.060-147.257-268.060-299.476-57.753 208.463-223.396-37.841-303.719 276.111 129.984 276.093-129.984-37.841 303.719z"  horiz-adv-x="1024" />

    
    <glyph glyph-name="star1" unicode="&#58907;" d="M957.111 492.52c-3.927 11.67-14.447 19.864-26.724 20.816l-282.707 21.915-107.497 276.623c-4.586 11.804-15.951 19.58-28.615 19.58s-24.027-7.776-28.615-19.58l-107.495-276.623-282.709-21.915c-12.277-0.952-22.796-9.146-26.724-20.816-3.927-11.67-0.501-24.557 8.701-32.738l217.548-193.359-67.98-291.298c-2.849-12.207 2.010-24.92 12.274-32.114 10.265-7.196 23.873-7.428 34.376-0.586l240.624 156.709 240.625-156.709c5.099-3.321 10.929-4.974 16.753-4.974 6.174 0 12.342 1.858 17.623 5.562 10.264 7.195 15.122 19.907 12.274 32.114l-67.98 291.299 217.547 193.357c9.204 8.18 12.628 21.068 8.701 32.738z"  horiz-adv-x="1024" />

    
    <glyph glyph-name="wujiaoxing" unicode="&#58998;" d="M511.082606 806.292885 640.347668 514.417305 957.756785 480.414887 720.110293 267.272485 785.8526-45.099918 509.716492 115.060805 232.943888-44.007027 299.926442 268.116713 63.132364 482.1893 380.657114 514.935098 511.082606 806.292885Z"  horiz-adv-x="1024" />

    
    <glyph glyph-name="ai64" unicode="&#59062;" d="M885.942179 468.312244l-267.445168 22.933315-104.470353 246.470461L409.553235 491.24556l-267.336698-22.933315 202.846918-175.770236-60.789505-261.34524 229.753731 138.569986 229.859132-138.569986-60.785411 261.34524L885.942179 468.312244zM514.026658 239.596146l-139.875724-84.425831 37.038568 159.160953-123.591853 106.975407 162.91751 14.053064 63.511499 150.116973 63.620993-150.116973 162.860205-14.053064-123.534548-106.975407 37.038568-159.160953L514.026658 239.596146z"  horiz-adv-x="1024" />

    
    <glyph glyph-name="ai65" unicode="&#59063;" d="M883.075899 467.771939l-267.119757 22.906709-104.369046 246.226914-104.363929-246.226914-267.122827-22.906709 202.63714-175.596274-60.72606-261.081227 229.575676 138.430816 229.577722-138.374534-60.780295 261.134439L883.075899 467.771939zM511.587096 239.284037 511.587096 584.816678l63.559595-149.966547 162.695452-14.038738-123.465986-106.871029 37.002752-158.998247L511.587096 239.284037z"  horiz-adv-x="1024" />

    
    <glyph glyph-name="wujiaoxing_kong" unicode="&#58883;" d="M960.64 484.308L650.758 529.18 512.64 809.6 373.501 529.18 64.64 484.308 288.895 265.07l-53.008-307.95L512.66 101.919 789.388-42.88l-53.003 307.95L960.64 484.308z m-448-313.053L316.416 67.247l36.694 219.241-159.013 155 220.176 31.605 98.368 199.872 98.368-199.872 219.153-31.604-159.014-155 37.72-219.242L512.64 171.255z"  horiz-adv-x="1024" />

    
    <glyph glyph-name="wujiaoxingkong" unicode="&#58950;" d="M791.2-122.4c-8.8 0-16.8 2.4-24.8 6.4l-224 123.2c-9.6 4.8-20 8-30.4 8-10.4 0-20.8-2.4-30.4-8l-224-123.2c-8-4-16-6.4-24.8-6.4-15.2 0-30.4 7.2-40.8 19.2-11.2 12.8-15.2 29.6-12.8 47.2l43.2 260.8c4 21.6-3.2 44-18.4 59.2L21.6 449.6A57.6 57.6 0 0 0 8 508.8c6.4 20 23.2 34.4 43.2 37.6l250.4 38.4c20.8 3.2 39.2 16.8 48.8 36.8l112 237.6C472 879.2 489.6 890.4 511.2 890.4c20.8 0 39.2-12 48-31.2l112-237.6c9.6-20 28-33.6 48.8-36.8l250.4-38.4c20-3.2 36.8-16.8 43.2-37.6 7.2-20.8 1.6-44-13.6-59.2l-181.6-184.8c-15.2-15.2-22.4-37.6-18.4-59.2l43.2-260.8c3.2-17.6-1.6-34.4-12.8-47.2-8.8-12.8-23.2-20-39.2-20zM512 64.8c19.2 0 37.6-4.8 54.4-13.6l236.8-130.4-6.4 14.4v0.8l-42.4 260.8c-6.4 37.6 5.6 76 32 102.4L968 484c2.4 2.4 3.2 6.4 1.6 9.6v3.2l-256 39.2c-37.6 5.6-69.6 29.6-86.4 64.8L512 845.6 396 600.8c-16.8-35.2-48.8-59.2-86.4-64.8L49.6 496l5.6-5.6c0-1.6 0.8-4 2.4-6.4l181.6-184.8c26.4-26.4 38.4-64.8 32-102.4L228-64v-4l1.6-7.2 228.8 125.6c16 9.6 34.4 14.4 53.6 14.4z"  horiz-adv-x="1024" />

    
    <glyph glyph-name="emoji-" unicode="&#59316;" d="M511.4 446.8m-423.4 0a423.4 423.4 0 1 1 846.8 0 423.4 423.4 0 1 1-846.8 0ZM511.4 13.4c-58.5 0-115.3 11.5-168.7 34.1-51.6 21.8-98 53.1-137.8 92.9-39.8 39.8-71 86.1-92.9 137.8-22.6 53.4-34.1 110.2-34.1 168.7S89.4 562.1 112 615.5c21.8 51.6 53.1 98 92.9 137.8s86.1 71 137.8 92.9c53.4 22.6 110.2 34.1 168.7 34.1 58.5 0 115.3-11.5 168.7-34.1 51.6-21.8 98-53.1 137.8-92.9 39.8-39.8 71-86.1 92.9-137.8 22.6-53.4 34.1-110.2 34.1-168.7s-11.5-115.3-34.1-168.7c-21.8-51.6-53.1-98-92.9-137.8-39.8-39.8-86.1-71-137.8-92.9-53.5-22.5-110.2-34-168.7-34z m0 846.8c-55.8 0-110-10.9-160.9-32.5-49.3-20.8-93.5-50.6-131.5-88.6-38-38-67.8-82.2-88.6-131.4-21.6-51-32.5-105.1-32.5-160.9s10.9-110 32.5-160.9c20.8-49.2 50.6-93.4 88.6-131.4 38-38 82.2-67.8 131.4-88.6 51-21.6 105.1-32.5 160.9-32.5s110 10.9 160.9 32.5c49.2 20.8 93.4 50.6 131.4 88.6 38 38 67.8 82.2 88.6 131.4 21.6 51 32.5 105.1 32.5 160.9s-10.9 110-32.5 160.9c-20.8 49.2-50.6 93.4-88.6 131.4-38 38-82.2 67.8-131.4 88.6-50.9 21.6-105 32.5-160.8 32.5zM511.4 480.8m-389.5 0a389.5 389.5 0 1 1 779 0 389.5 389.5 0 1 1-779 0ZM511.4 13.4c-58.5 0-115.3 11.5-168.7 34.1-51.6 21.8-98 53.1-137.8 92.9-39.8 39.8-71 86.1-92.9 137.8-22.6 53.4-34.1 110.2-34.1 168.7S89.4 562.1 112 615.5c21.8 51.6 53.1 98 92.9 137.8s86.1 71 137.8 92.9c53.4 22.6 110.2 34.1 168.7 34.1 58.5 0 115.3-11.5 168.7-34.1 51.6-21.8 98-53.1 137.8-92.9 39.8-39.8 71-86.1 92.9-137.8 22.6-53.4 34.1-110.2 34.1-168.7s-11.5-115.3-34.1-168.7c-21.8-51.6-53.1-98-92.9-137.8-39.8-39.8-86.1-71-137.8-92.9-53.5-22.5-110.2-34-168.7-34z m0 846.8c-55.8 0-110-10.9-160.9-32.5-49.3-20.8-93.5-50.6-131.5-88.6-38-38-67.8-82.2-88.6-131.4-21.6-51-32.5-105.1-32.5-160.9s10.9-110 32.5-160.9c20.8-49.2 50.6-93.4 88.6-131.4 38-38 82.2-67.8 131.4-88.6 51-21.6 105.1-32.5 160.9-32.5s110 10.9 160.9 32.5c49.2 20.8 93.4 50.6 131.4 88.6 38 38 67.8 82.2 88.6 131.4 21.6 51 32.5 105.1 32.5 160.9s-10.9 110-32.5 160.9c-20.8 49.2-50.6 93.4-88.6 131.4-38 38-82.2 67.8-131.4 88.6-50.9 21.6-105 32.5-160.8 32.5zM376.9 768.4a134.5 43.5 0 1 1 269 0 134.5 43.5 0 1 1-269 0ZM511.4 278c-68.5 0-132.6 8.1-187.7 22.3-19.9 5.1-38.7-11.8-34.4-31.2 21.8-99 113-173.2 222.2-173.2s200.3 74.2 222 173.1c4.3 19.4-14.6 36.3-34.4 31.2-55.2-14.1-119.3-22.2-187.7-22.2zM511.4 85.8c-54.6 0-107.9 18.3-150.1 51.6-41.7 32.9-70.7 78.9-81.9 129.4-2.7 12.2 1.2 24.7 10.3 33.5 9.7 9.3 23.3 12.9 36.4 9.6 56-14.4 120.1-22 185.3-22 65.2 0 129.3 7.6 185.3 22 13.1 3.4 26.7-0.2 36.4-9.6 9.1-8.8 13-21.3 10.3-33.5-11.1-50.5-40.2-96.5-81.9-129.4-42.2-33.2-95.5-51.6-150.1-51.6z m-195 205.4c-4.7 0-9.3-1.8-12.8-5.2-4.2-4-5.9-9.4-4.7-14.8 10.1-46 36.7-88 74.7-118 38.7-30.5 87.6-47.3 137.7-47.3 50.1 0 99 16.8 137.7 47.3 38.1 30 64.6 72 74.7 118 1.2 5.4-0.5 10.8-4.7 14.8-4.6 4.5-11.2 6.2-17.5 4.6C644 275.8 578.2 268 511.4 268c-66.9 0-132.6 7.8-190.2 22.6-1.7 0.4-3.2 0.6-4.8 0.6zM657.5 147.2c-39.5 32-90.4 51.3-146.1 51.3s-106.6-19.3-146.1-51.3c39.5-32 90.4-51.3 146.1-51.3s106.6 19.3 146.1 51.3zM511.4 85.8c-55.7 0-109.8 19-152.4 53.6-2.3 1.9-3.7 4.8-3.7 7.8s1.4 5.9 3.7 7.8c42.6 34.5 96.7 53.6 152.4 53.6s109.8-19 152.4-53.6c2.3-1.9 3.7-4.8 3.7-7.8s-1.4-5.9-3.7-7.8c-42.6-34.5-96.8-53.6-152.4-53.6z m-129.7 61.4c37.3-26.7 82.9-41.3 129.6-41.3s92.3 14.6 129.6 41.3c-37.3 26.7-82.9 41.3-129.6 41.3-46.7 0-92.2-14.6-129.6-41.3zM229.3 341.8a50.1 31 0 1 1 100.2 0 50.1 31 0 1 1-100.2 0ZM693.3 341.8a50.1 31 0 1 1 100.2 0 50.1 31 0 1 1-100.2 0ZM180.8-70.9a330.6 33.8 0 1 1 661.2 0 330.6 33.8 0 1 1-661.2 0ZM665.2 153.7l-108.8-54.8c0-0.1-0.1-0.2-0.2-0.3v-146.4c0-10.7 7.7-20.4 19-22.6 15.5-3 29.3 8 29.3 21.9V86.4l60.7 67.3zM580.4-80.9c-2.3 0-4.7 0.2-7 0.7-15.7 3-27.1 16.7-27.1 32.4V98.6c0 1.6 0.4 3.1 1.1 4.5l0.2 0.3c1 1.9 2.5 3.5 4.4 4.5l108.8 54.8c4.3 2.2 9.5 1 12.4-2.9 2.9-3.8 2.7-9.2-0.5-12.8l-58.1-64.4v-131.1c0-9.4-4.3-18.3-11.8-24.4-6.3-5.2-14.2-8-22.4-8z m-14.2 173.6v-140.5c0-6.2 4.6-11.6 10.9-12.8 4.7-0.9 9.4 0.2 12.9 3.1 2.9 2.4 4.5 5.6 4.5 9V86.4c0 2.5 0.9 4.9 2.6 6.7l25 27.7-55.9-28.1zM371.1 841.6c-33.9-9.8-60-33.2-74.4-62.6-27.9 17.1-62.5 22.9-96.3 13.1-63.9-18.5-100.7-85.3-82.2-149.1 18.5-63.9 237.1-184 268.5-174.9 31.4 9.1 152.1 227.4 133.6 291.3-18.6 63.9-85.4 100.7-149.2 82.2zM382.8 457.6c-7.6 0-22.4 2.6-52.8 15.9-26.2 11.4-57.4 27.8-87.7 46.2C206.2 541.5 121 597 108.4 640.2c-20 69.1 20 141.5 89 161.5 31.7 9.2 65.8 5.8 95.2-9.1 16.9 28.4 44 49.4 75.7 58.6 33.5 9.7 68.7 5.8 99.2-11.1 30.5-16.8 52.6-44.5 62.3-78 12.5-43.3-29.9-135.7-48.8-173.4-15.8-31.7-33.4-62.2-49.5-85.9-27.2-40-38.5-43.3-42.2-44.3-1.1-0.3-3.1-0.9-6.5-0.9zM233.4 786.9c-10.2 0-20.4-1.4-30.4-4.3-58.5-16.9-92.3-78.3-75.4-136.8 7.2-24.8 54.9-66.5 124.4-108.7 29.4-17.9 59.7-33.9 85.2-45 37.4-16.4 46.5-14.4 46.6-14.4 0.1 0 8.8 3.2 31.7 37 15.6 23 32.6 52.7 48 83.5 36.3 72.8 54.3 133.5 47.1 158.3-8.2 28.3-26.9 51.8-52.8 66-25.8 14.2-55.7 17.6-84 9.4l-2.8 9.6 2.8-9.6c-29.6-8.6-54.5-29.5-68.3-57.4l-4.8-9.8-9.4 5.7c-17.5 10.9-37.7 16.5-57.9 16.5zM407.3 716.3c-33.9-9.8-60-33.2-74.4-62.6-27.9 17.1-62.5 22.9-96.3 13.1-38.2-11-66.5-39.4-79.3-73.9 69.1-61.7 205.1-131.9 229.4-124.8 24.3 7 101.8 139 127.3 228.1-29.4 22.3-68.5 31.1-106.7 20.1zM382.8 457.6c-7.6 0-22.4 2.6-52.8 15.9-26.2 11.4-57.4 27.8-87.7 46.2C206.2 541.5 121 597 108.4 640.2c-20 69.1 20 141.5 89 161.5 31.7 9.2 65.8 5.8 95.2-9.1 16.9 28.4 44 49.4 75.7 58.6 33.5 9.7 68.7 5.8 99.2-11.1 30.5-16.8 52.6-44.5 62.3-78 12.5-43.3-29.9-135.7-48.8-173.4-15.8-31.7-33.4-62.2-49.5-85.9-27.2-40-38.5-43.3-42.2-44.3-1.1-0.3-3.1-0.9-6.5-0.9zM233.4 786.9c-10.2 0-20.4-1.4-30.4-4.3-58.5-16.9-92.3-78.3-75.4-136.8 7.2-24.8 54.9-66.5 124.4-108.7 29.4-17.9 59.7-33.9 85.2-45 37.4-16.4 46.5-14.4 46.6-14.4 0.1 0 8.8 3.2 31.7 37 15.6 23 32.6 52.7 48 83.5 36.3 72.8 54.3 133.5 47.1 158.3-8.2 28.3-26.9 51.8-52.8 66-25.8 14.2-55.7 17.6-84 9.4l-2.8 9.6 2.8-9.6c-29.6-8.6-54.5-29.5-68.3-57.4l-4.8-9.8-9.4 5.7c-17.5 10.9-37.7 16.5-57.9 16.5zM751.7 638.7c-16.6 9.2-35.5 10.2-52.1 4.5-4.1 17.1-15 32.5-31.7 41.7-31.3 17.3-70.7 5.9-88-25.5-17.3-31.3 20.2-160.2 35.6-168.7 15.4-8.5 144.4 28.6 161.7 60 17.2 31.4 5.8 70.8-25.5 88zM623.2 479.5c-6.8 0-10.3 1.2-12.6 2.5-4.1 2.3-10 7.8-19 30.6-5.7 14.5-11.4 32.8-16 51.5-6.9 28-16.6 78.3-4.6 100.1 9.6 17.5 25.5 30.2 44.7 35.7 19.2 5.6 39.4 3.3 56.9-6.3 15.3-8.5 27.2-22.1 33.5-38.3 17.1 3.3 35 0.6 50.3-7.9 17.5-9.6 30.2-25.5 35.7-44.7s3.3-39.4-6.3-56.9c-12-21.8-59.7-40.4-87.1-49.6-18.3-6.1-36.8-11.1-52.1-14-10.5-1.9-18-2.7-23.4-2.7z m-2.8 20.1c6.8-1.1 35.8 3.3 74.8 16.6 46.8 16 68.7 31.2 73.2 39.3 7.1 12.8 8.7 27.6 4.6 41.7-4.1 14.1-13.4 25.7-26.2 32.8-13.4 7.4-29.5 8.8-44.1 3.8l-10.4-3.5-2.6 10.7c-3.6 15-13.4 27.8-26.8 35.2-12.8 7.1-27.6 8.7-41.7 4.6-14.1-4.1-25.7-13.4-32.8-26.2-4.5-8.2-5.7-34.8 5.8-82.9 9.9-40 21.7-66.9 26.2-72.1zM717.8 577.3c-16.6 9.2-35.5 10.2-52.1 4.5-4.1 17.1-15 32.5-31.7 41.7-18.7 10.3-40.3 10.3-58.3 2.1 2.8-49.8 27.9-128.2 39.8-134.8 11.9-6.6 91.6 14.1 135.2 38.3-2.6 19.7-14.2 37.9-32.9 48.2zM623.2 479.5c-6.8 0-10.3 1.2-12.6 2.5-4.1 2.3-10 7.8-19 30.6-5.7 14.5-11.4 32.8-16 51.5-6.9 28-16.6 78.3-4.6 100.1 9.6 17.5 25.5 30.2 44.7 35.7 19.2 5.6 39.4 3.3 56.9-6.3 15.3-8.5 27.2-22.1 33.5-38.3 17.1 3.3 35 0.6 50.3-7.9 17.5-9.6 30.2-25.5 35.7-44.7s3.3-39.4-6.3-56.9c-12-21.8-59.7-40.4-87.1-49.6-18.3-6.1-36.8-11.1-52.1-14-10.5-1.9-18-2.7-23.4-2.7z m-2.8 20.1c6.8-1.1 35.8 3.3 74.8 16.6 46.8 16 68.7 31.2 73.2 39.3 7.1 12.8 8.7 27.6 4.6 41.7-4.1 14.1-13.4 25.7-26.2 32.8-13.4 7.4-29.5 8.8-44.1 3.8l-10.4-3.5-2.6 10.7c-3.6 15-13.4 27.8-26.8 35.2-12.8 7.1-27.6 8.7-41.7 4.6-14.1-4.1-25.7-13.4-32.8-26.2-4.5-8.2-5.7-34.8 5.8-82.9 9.9-40 21.7-66.9 26.2-72.1z"  horiz-adv-x="1024" />

    
    <glyph glyph-name="emoji-1" unicode="&#59325;" d="M120.2-60a392.1 40.1 0 1 1 784.2 0 392.1 40.1 0 1 1-784.2 0ZM813 400.7c15.7 19.6 25.1 44.1 25.1 70.6 0 64-54.5 116.4-121 116.4h-13c11 10.3 19.2 23.2 23.8 37.7 9 13.5 14.3 29.5 14.3 46.6 0 47.8-40.6 86.8-90.2 86.8H530.8c-1.9 0-20.7 3.2-22.2 4.1-17.8 10-19.9 33.4-19.9 54.6 0 6.6 6.9 46.4 7.8 52.7-75.9-13.7-139.7-111-139.7-188 0-31.9 11.7-78.4 28.8-94.5h-78.1c-66.6 0-121-52.4-121-116.4 0-26.5 9.4-51 25.1-70.6-71.8-20-124.8-84-124.8-159.3 0-91.2 77.6-165.9 172.4-165.9h506.2c94.8 0 172.4 74.6 172.4 165.9 0 75.3-53 139.3-124.8 159.3zM765.4 65.5H259.2c-48.5 0-94.2 18.3-128.7 51.5-34.6 33.3-53.7 77.5-53.7 124.4 0 38.8 13 75.7 37.6 106.6 20.9 26.2 49.3 46.5 81.1 58-12.5 19.7-19 42-19 65.3 0 69.7 58.8 126.4 131 126.4h58.7c-4.9 9.4-8.6 19.9-11.1 28.5-5.3 18.5-8.4 38.9-8.4 55.9 0 40 15.8 85 43.2 123.6 29.2 41 66.4 67.4 104.7 74.3 3.2 0.6 6.4-0.4 8.7-2.7 2.3-2.2 3.4-5.5 2.9-8.6-0.2-1.6-0.8-4.8-1.5-9.3-1.7-10.3-6.2-37.6-6.2-41.9 0-31.8 7-41.1 14.1-45.4 3.6-0.9 15.8-3 18.4-3.3h121c55.3 0 100.2-43.4 100.2-96.8 0-18-5.3-35.6-15.2-51-2.8-8.3-6.7-16.2-11.6-23.5 68.4-4.2 122.7-59.2 122.7-126.2 0-23.2-6.5-45.5-19-65.3 31.8-11.6 60.2-31.8 81.1-58 24.6-30.9 37.6-67.8 37.6-106.6 0-46.9-19.1-91-53.7-124.4-34.6-33.2-80.3-51.5-128.7-51.5zM307.5 577.7c-61.2 0-111-47.7-111-106.4 0-23.3 7.9-45.6 22.9-64.4 2.1-2.6 2.7-6.1 1.7-9.3-1-3.2-3.6-5.7-6.8-6.6-69.2-19.3-117.5-80.8-117.5-149.7 0-41.4 16.9-80.4 47.6-109.9 30.8-29.6 71.6-45.9 114.8-45.9h506.2c43.3 0 84 16.3 114.8 45.9 30.7 29.5 47.6 68.6 47.6 109.9 0 68.9-48.3 130.4-117.5 149.7-3.2 0.9-5.8 3.4-6.8 6.6-1 3.2-0.4 6.7 1.7 9.3 15 18.8 22.9 41 22.9 64.4 0 58.7-49.8 106.4-111 106.4h-13c-4.1 0-7.8 2.5-9.3 6.3-1.5 3.8-0.5 8.2 2.4 11 9.8 9.2 17.1 20.8 21.1 33.4 0.3 0.9 0.7 1.8 1.2 2.5 8.3 12.4 12.6 26.6 12.6 41.1 0 42.4-36 76.8-80.2 76.8H530.8c-1.5 0-22.9 3-27.1 5.4-22.1 12.4-25 39-25 63.3 0 4.5 2 17.8 5.5 39.2-28-9.4-55.7-31.6-77.8-62.6-24.7-34.7-39.5-76.6-39.5-112 0-33 12.2-74.6 25.6-87.2 3-2.8 4-7.2 2.4-11-1.5-3.8-5.2-6.3-9.3-6.3h-78.1zM937.8 241.4c0 75.3-52.9 139.3-124.8 159.3 15.7 19.6 25.1 44.1 25.1 70.6 0 64-54.5 116.4-121 116.4h-13c11 10.3 19.2 23.2 23.8 37.7 9 13.5 14.3 29.5 14.3 46.6 0 16.7-5.1 32.3-13.7 45.6 0 0-26.1 37.4-116 41.2h-81.8c-0.8 0-4.4 0.5-8.4 1.2-26-35.8-42.3-80-42.3-119 0-31.9 11.7-78.4 28.8-94.5h-78.1c-66.6 0-121-52.4-121-116.4 0-26.5 9.4-51 25.1-70.6-71.8-20-124.8-84-124.8-159.3 0-49.6 22.9-94.2 59-124.7h496.3c94.9 0 172.5 74.6 172.5 165.9zM765.4 65.5H259.2c-48.5 0-94.2 18.3-128.7 51.5-34.6 33.3-53.7 77.5-53.7 124.4 0 38.8 13 75.7 37.6 106.6 20.9 26.2 49.3 46.5 81.1 58-12.5 19.7-19 42-19 65.3 0 69.7 58.8 126.4 131 126.4h58.7c-4.9 9.4-8.6 19.9-11.1 28.5-5.3 18.5-8.4 38.9-8.4 55.9 0 40 15.8 85 43.2 123.6 29.2 41 66.4 67.4 104.7 74.3 3.2 0.6 6.4-0.4 8.7-2.7 2.3-2.2 3.4-5.5 2.9-8.6-0.2-1.6-0.8-4.8-1.5-9.3-1.7-10.3-6.2-37.6-6.2-41.9 0-31.8 7-41.1 14.1-45.4 3.6-0.9 15.8-3 18.4-3.3h121c55.3 0 100.2-43.4 100.2-96.8 0-18-5.3-35.6-15.2-51-2.8-8.3-6.7-16.2-11.6-23.5 68.4-4.2 122.7-59.2 122.7-126.2 0-23.2-6.5-45.5-19-65.3 31.8-11.6 60.2-31.8 81.1-58 24.6-30.9 37.6-67.8 37.6-106.6 0-46.9-19.1-91-53.7-124.4-34.6-33.2-80.3-51.5-128.7-51.5zM307.5 577.7c-61.2 0-111-47.7-111-106.4 0-23.3 7.9-45.6 22.9-64.4 2.1-2.6 2.7-6.1 1.7-9.3-1-3.2-3.6-5.7-6.8-6.6-69.2-19.3-117.5-80.8-117.5-149.7 0-41.4 16.9-80.4 47.6-109.9 30.8-29.6 71.6-45.9 114.8-45.9h506.2c43.3 0 84 16.3 114.8 45.9 30.7 29.5 47.6 68.6 47.6 109.9 0 68.9-48.3 130.4-117.5 149.7-3.2 0.9-5.8 3.4-6.8 6.6-1 3.2-0.4 6.7 1.7 9.3 15 18.8 22.9 41 22.9 64.4 0 58.7-49.8 106.4-111 106.4h-13c-4.1 0-7.8 2.5-9.3 6.3-1.5 3.8-0.5 8.2 2.4 11 9.8 9.2 17.1 20.8 21.1 33.4 0.3 0.9 0.7 1.8 1.2 2.5 8.3 12.4 12.6 26.6 12.6 41.1 0 42.4-36 76.8-80.2 76.8H530.8c-1.5 0-22.9 3-27.1 5.4-22.1 12.4-25 39-25 63.3 0 4.5 2 17.8 5.5 39.2-28-9.4-55.7-31.6-77.8-62.6-24.7-34.7-39.5-76.6-39.5-112 0-33 12.2-74.6 25.6-87.2 3-2.8 4-7.2 2.4-11-1.5-3.8-5.2-6.3-9.3-6.3h-78.1zM332.3 376.1m-26.2 0a26.2 26.2 0 1 1 52.4 0 26.2 26.2 0 1 1-52.4 0ZM692.2 376.1m-26.2 0a26.2 26.2 0 1 1 52.4 0 26.2 26.2 0 1 1-52.4 0ZM512.3 253.6c-48.6 0-94.1 5.8-133.2 15.8-14.1 3.6-27.5-8.4-24.4-22.1 15.5-70.2 80.1-122.9 157.6-122.9s142.2 52.7 157.6 122.9c3 13.8-10.3 25.8-24.4 22.1-39.2-10-84.6-15.8-133.2-15.8zM512.3 114.4c-39.4 0-77.8 13.2-108.3 37.3-30.1 23.8-51.1 57-59.1 93.5-2.1 9.6 0.9 19.5 8.1 26.5 7.6 7.3 18.3 10.1 28.6 7.5 39.5-10.1 84.7-15.5 130.7-15.5 46 0 91.2 5.4 130.7 15.5 10.3 2.6 21-0.2 28.6-7.5 7.2-7 10.2-16.9 8.1-26.5-8-36.5-29-69.7-59.1-93.5-30.5-24-68.9-37.3-108.3-37.3zM374 260.1c-2.6 0-5.1-1-7.1-2.9-1.3-1.3-3.3-3.9-2.5-7.8 7.1-32 25.5-61.2 52-82.1 26.9-21.3 61-33 95.9-33s69 11.7 95.9 33c26.5 20.9 44.9 50.1 52 82.1 0.9 3.9-1.2 6.5-2.5 7.8-2.6 2.5-6.2 3.4-9.7 2.5-41.1-10.6-88-16.1-135.7-16.1-47.7 0-94.6 5.6-135.7 16.1-0.9 0.3-1.8 0.4-2.6 0.4zM615.9 160.8c-28 22.7-64.2 36.4-103.7 36.4s-75.6-13.7-103.7-36.4c28-22.7 64.2-36.4 103.7-36.4s75.7 13.7 103.7 36.4zM512.3 114.4c-40.2 0-79.2 13.7-110 38.7-2.3 1.9-3.7 4.8-3.7 7.8s1.4 5.9 3.7 7.8c30.7 24.9 69.8 38.7 110 38.7s79.2-13.7 110-38.7c2.3-1.9 3.7-4.8 3.7-7.8s-1.4-5.9-3.7-7.8c-30.8-25-69.9-38.7-110-38.7z m-86.9 46.4c25.3-17.1 55.7-26.4 86.9-26.4s61.5 9.3 86.9 26.4c-25.3 17.1-55.7 26.4-86.9 26.4s-61.6-9.2-86.9-26.4zM224.6 269a44.2 27.4 0 1 1 88.4 0 44.2 27.4 0 1 1-88.4 0ZM708.6 269a44.2 27.4 0 1 1 88.4 0 44.2 27.4 0 1 1-88.4 0Z"  horiz-adv-x="1024" />

    
    <glyph glyph-name="guanbi" unicode="&#58916;" d="M512 439.689846L94.247385 857.442462a39.542154 39.542154 0 0 1-55.689847 0 39.266462 39.266462 0 0 1 0-55.689847L456.310154 384 38.557538-33.752615a39.542154 39.542154 0 0 1 0-55.689847 39.266462 39.266462 0 0 1 55.689847 0L512 328.310154l417.752615-417.752616c15.163077-15.163077 40.290462-15.36 55.689847 0a39.266462 39.266462 0 0 1 0 55.689847L567.689846 384 985.442462 801.752615a39.542154 39.542154 0 0 1 0 55.689847 39.266462 39.266462 0 0 1-55.689847 0L512 439.689846z"  horiz-adv-x="1024" />

    
    <glyph glyph-name="fenlei" unicode="&#58927;" d="M575.68 160a160.32 160.32 0 1 1 160.32 160.32H599.893333c-13.461333 0-24.192-10.752-24.192-24.192V160zM736 362.666667A202.666667 202.666667 0 1 0 533.333333 160V296.106667A66.432 66.432 0 0 0 599.872 362.666667H736zM490.666667 160a202.666667 202.666667 0 1 0-202.666667 202.666667h136.128A66.432 66.432 0 0 0 490.666667 296.128V160z m-202.666667 160.32a160.32 160.32 0 1 1 160.32-160.32V296.106667c0 13.44-10.730667 24.192-24.192 24.192H288zM533.333333 608.021333A202.666667 202.666667 0 1 0 736 405.333333H599.893333A66.432 66.432 0 0 0 533.333333 471.872V608z m202.666667-160.341333a160.32 160.32 0 1 1-160.32 160.32v-136.128c0-13.44 10.730667-24.192 24.192-24.192H736zM448.32 608a160.32 160.32 0 1 1-160.32-160.32h136.128c13.461333 0 24.192 10.752 24.192 24.192V608zM288 405.333333A202.666667 202.666667 0 1 0 490.666667 608v-136.128A66.432 66.432 0 0 0 424.128 405.333333H288z"  horiz-adv-x="1024" />

    
    <glyph glyph-name="xiaoxi" unicode="&#58928;" d="M490.752 104.768A21.333333 21.333333 0 0 0 512 128c13.866667 0 27.669333 0.618667 41.344 1.834667C748.032 147.221333 896 284.906667 896 448c0 175.850667-171.178667 320-384 320S128 623.850667 128 448c0-89.770667 44.693333-173.845333 122.410667-234.176a21.333333 21.333333 0 0 0-26.154667-33.706667C136.512 248.234667 85.333333 344.490667 85.333333 448c0 201.173333 191.765333 362.666667 426.666667 362.666667s426.666667-161.493333 426.666667-362.666667c0-186.816-166.186667-341.44-381.525334-360.661333-8.96-0.789333-17.92-1.365333-26.965333-1.685334-18.986667-73.557333-82.602667-116.778667-161.002667-127.445333-31.616-4.309333-61.952-2.197333-80.554666 5.866667-32.917333 14.250667-30.037333 46.933333 3.178666 64.256 20.352 10.602667 31.893333 25.450667 37.013334 44.224 4.48 16.490667 3.712 34.922667-0.426667 52.565333a95.061333 95.061333 0 0 1-3.114667 10.965333 21.333333 21.333333 0 0 0 39.893334 15.189334c1.28-3.456 3.072-9.088 4.778666-16.448 5.589333-23.957333 6.634667-49.152 0.021334-73.472a108.842667 108.842667 0 0 0-44.096-62.229334c10.752-0.853333 23.893333-0.512 37.546666 1.344 65.877333 8.981333 116.053333 44.714667 127.338667 104.32zM352 469.333333a21.333333 21.333333 0 0 0 0 42.666667h341.333333a21.333333 21.333333 0 0 0 0-42.666667h-341.333333z m0-128a21.333333 21.333333 0 0 0 0 42.666667h213.333333a21.333333 21.333333 0 0 0 0-42.666667h-213.333333z"  horiz-adv-x="1024" />

    
    <glyph glyph-name="sousuo" unicode="&#58930;" d="M474.453333 11.946667c-225.28 0-409.6 184.32-409.6 409.6s184.32 409.6 409.6 409.6 409.6-184.32 409.6-409.6-184.32-409.6-409.6-409.6z m0 68.266666c187.733333 0 341.333333 153.6 341.333334 341.333334s-153.6 341.333333-341.333334 341.333333-341.333333-153.6-341.333333-341.333333 153.6-341.333333 341.333333-341.333334z m252.586667-54.613333c-13.653333 13.653333-10.24 37.546667 3.413333 47.786667s37.546667 10.24 47.786667-3.413334l64.853333-78.506666c13.653333-13.653333 10.24-37.546667-3.413333-47.786667s-37.546667-10.24-47.786667 3.413333l-64.853333 78.506667z"  horiz-adv-x="1024" />

    
    <glyph glyph-name="xuanzhong" unicode="&#58935;" d="M535.770344-121.621782c-51.025747 0-102.051494 19.134655-140.320804 63.782184L19.134655 356.744597C-6.378218 382.257471 0 420.526781 25.512874 446.039655s63.782184 19.134655 89.295057-6.378219l376.314885-414.584195c25.512874-25.512874 63.782184-25.512874 89.295057-6.378218l6.378218 6.378218L1326.669424 873.380286c25.512874 25.512874 63.782184 31.891092 89.295057 6.378219 25.512874-25.512874 31.891092-63.782184 6.378219-89.295058L676.091149-57.839598l-12.756437-12.756437c-38.26931-31.891092-82.916839-51.025747-127.564368-51.025747z"  horiz-adv-x="1466" />

    
    <glyph glyph-name="kexuanzuobiankuang" unicode="&#58938;" d="M940.8 700.8C928 800 841.6 880 736 880H288C182.4 880 96 800 83.2 700.8 35.2 684.8 0 643.2 0 592v-512C0 19.200000000000045 51.2-32 112-32h12.8C163.2-80 224-112 288-112h448c64 0 124.8 32 163.2 80h12.8c60.8 0 112 51.2 112 112v512c0 51.2-35.2 92.8-83.2 108.8zM288 848h448c86.4 0 156.8-60.8 172.8-144-60.8-3.2-108.8-51.2-108.8-112v-512H224v512C224 652.8 176 700.8 115.2 704 131.2 787.2 201.6 848 288 848z m-256-768v512C32 636.8 67.2 672 112 672S192 636.8 192 592v-512C192 35.200000000000045 156.8 0 112 0S32 35.200000000000045 32 80z m704-160H288c-51.2 0-96 22.4-131.2 57.6 28.8 12.8 51.2 38.4 60.8 70.4h585.6c9.6-32 32-57.6 60.8-70.4-32-35.2-76.8-57.6-128-57.6z m256 160c0-44.8-35.2-80-80-80S832 35.200000000000045 832 80v512C832 636.8 867.2 672 912 672S992 636.8 992 592v-512z"  horiz-adv-x="1024" />

    
    <glyph glyph-name="zuoweibeijing" unicode="&#58939;" d="M115.968-31.936A112 112 0 0 0 0 80v512c0 50.88 33.92 93.792 80.32 107.456A192 192 0 0 0 272 880h480a192 192 0 0 0 191.68-180.544A112.064 112.064 0 0 0 1024 592v-512a112 112 0 0 0-115.968-111.936A191.744 191.744 0 0 0 752-112h-480a191.744 191.744 0 0 0-156.032 80.064z"  horiz-adv-x="1024" />

    
    <glyph glyph-name="bukexuanzuo" unicode="&#58940;" d="M112 704A112 112 0 0 0 224 592v-512a112 112 0 0 0-224 0v512A112 112 0 0 0 112 704zM32 592v-512a80 80 0 1 1 160 0v512a80 80 0 0 1-160 0zM912 704A112 112 0 0 0 1024 592v-512a112 112 0 0 0-224 0v512A112 112 0 0 0 912 704z m0-32A80 80 0 0 1 832 592v-512a80 80 0 1 1 160 0v512A80 80 0 0 1 912 672z m-34.848-681.12l25.664-19.136A207.68 207.68 0 0 0 736-112H288a207.68 207.68 0 0 0-166.496 83.328l25.6 19.2A175.68 175.68 0 0 1 288-80h448a175.68 175.68 0 0 1 141.152 70.88zM112 672h-32A208 208 0 0 0 288 880h448A208 208 0 0 0 944 672h-32A176 176 0 0 1 736 848H288A176 176 0 0 1 112 672zM192 96h640v-32H192v32z m320 304a176 176 0 1 1 0 352 176 176 0 0 1 0-352z m-83.04-14.752A208.064 208.064 0 0 0 512 784a208 208 0 0 0 83.04-398.752A240.096 240.096 0 0 0 752 160a16 16 0 1 0-32 0 208 208 0 1 1-416 0 16 16 0 1 0-32 0 240.096 240.096 0 0 0 156.96 225.248z"  horiz-adv-x="1024" />

    
    <glyph glyph-name="yigouxuan" unicode="&#58941;" d="M196.923077 896h630.153846a196.923077 196.923077 0 0 0 196.923077-196.923077v-630.153846a196.923077 196.923077 0 0 0-196.923077-196.923077H196.923077a196.923077 196.923077 0 0 0-196.923077 196.923077V699.076923a196.923077 196.923077 0 0 0 196.923077 196.923077z m0-78.769231a118.153846 118.153846 0 0 1-118.153846-118.153846v-630.153846a118.153846 118.153846 0 0 1 118.153846-118.153846h630.153846a118.153846 118.153846 0 0 1 118.153846 118.153846V699.076923a118.153846 118.153846 0 0 1-118.153846 118.153846H196.923077z m584.900923-258.205538a36.509538 36.509538 0 0 0 1.260308-51.633231l-299.480616-313.107692c-0.118154-0.157538-0.393846-0.236308-0.630154-0.472616l-0.393846-0.551384c-2.166154-2.126769-4.726154-3.229538-7.207384-4.726154-1.575385-0.866462-2.796308-2.166154-4.411077-2.835692a35.800615 35.800615 0 0 0-27.490462-0.07877c-1.260308 0.512-2.284308 1.614769-3.544615 2.284308-2.756923 1.457231-5.592615 2.835692-8.034462 5.12-0.196923 0.157538-0.275692 0.433231-0.512 0.669538-0.196923 0.118154-0.393846 0.196923-0.551384 0.354462l-150.843077 156.593231a36.430769 36.430769 0 0 0 0.945231 51.633231 36.391385 36.391385 0 0 0 51.63323-0.945231l124.455385-129.102769 273.092923 285.61723a36.548923 36.548923 0 0 0 51.712 1.181539z"  horiz-adv-x="1024" />

    
    <glyph glyph-name="weigouxuan" unicode="&#58942;" d="M196.923077 817.230769a118.153846 118.153846 0 0 1-118.153846-118.153846v-630.153846a118.153846 118.153846 0 0 1 118.153846-118.153846h630.153846a118.153846 118.153846 0 0 1 118.153846 118.153846V699.076923a118.153846 118.153846 0 0 1-118.153846 118.153846H196.923077z m0 78.769231h630.153846a196.923077 196.923077 0 0 0 196.923077-196.923077v-630.153846a196.923077 196.923077 0 0 0-196.923077-196.923077H196.923077a196.923077 196.923077 0 0 0-196.923077 196.923077V699.076923a196.923077 196.923077 0 0 0 196.923077 196.923077z"  horiz-adv-x="1024" />

    
    <glyph glyph-name="changyonggoupiaorenshanchu" unicode="&#58949;" d="M96 576a32 32 0 1 0 0 64h832a32 32 0 0 0 0-64H96z m736 0h64v-448a160 160 0 0 0-160-160H288a160 160 0 0 0-160 160V576h64v-96H128v96h64v-448a96 96 0 0 1 96-96h448a96 96 0 0 1 96 96V576z m-512-112a32 32 0 0 0 64 0v-320a32 32 0 0 0-64 0v320z m320 0a32 32 0 0 0 64 0v-320a32 32 0 0 0-64 0v320zM288 640H224V704a96 96 0 0 0 96 96h384a96 96 0 0 0 96-96v-64h-64V672h64v-32h-64V704a32 32 0 0 1-32 32H320a32 32 0 0 1-32-32v-64z"  horiz-adv-x="1024" />

    
    <glyph glyph-name="weigouxuan1" unicode="&#58954;" d="M256 768a128 128 0 0 1-128-128v-512a128 128 0 0 1 128-128h512a128 128 0 0 1 128 128V640a128 128 0 0 1-128 128H256z m0 51.2h512a179.2 179.2 0 0 0 179.2-179.2v-512a179.2 179.2 0 0 0-179.2-179.2H256a179.2 179.2 0 0 0-179.2 179.2V640a179.2 179.2 0 0 0 179.2 179.2z"  horiz-adv-x="1024" />

    
    <glyph glyph-name="yigouxuan1" unicode="&#58955;" d="M796.912941 598.437647L407.491765 203.294118l-156.611765 172.272941a30.177882 30.177882 0 0 1-44.574118-40.658824L361.411765 161.430588a60.235294 60.235294 0 0 1 85.232941-3.915294l2.409412 2.409412 390.927058 396.348235a30.117647 30.117647 0 1 1-43.068235 42.164706zM813.176471 896H210.823529a210.823529 210.823529 0 0 1-210.823529-210.823529v-602.352942a210.823529 210.823529 0 0 1 210.823529-210.823529h602.352942a210.823529 210.823529 0 0 1 210.823529 210.823529V685.176471a210.823529 210.823529 0 0 1-210.823529 210.823529z m150.588235-813.176471a150.588235 150.588235 0 0 0-150.588235-150.588235H210.823529a150.588235 150.588235 0 0 0-150.588235 150.588235V685.176471a150.588235 150.588235 0 0 0 150.588235 150.588235h602.352942a150.588235 150.588235 0 0 0 150.588235-150.588235z"  horiz-adv-x="1024" />

    
    <glyph glyph-name="guanbi1" unicode="&#58957;" d="M511.232 457.1648L112.9984 855.3984A51.2 51.2 0 0 1 40.6016 783.0016L438.784 384.768 40.6016-13.4656a51.2 51.2 0 1 1 72.3968-72.448l398.2336 398.2848 398.2336-398.2848a51.2 51.2 0 1 1 72.448 72.448l-398.2848 398.2336 398.2848 398.2336A51.2 51.2 0 0 1 909.4656 855.3984L511.232 457.216z"  horiz-adv-x="1024" />

    
    <glyph glyph-name="jiajianzujianjiahao" unicode="&#58958;" d="M426.666667 469.333333H85.546667A85.418667 85.418667 0 0 1 0 384c0-47.445333 38.314667-85.333333 85.546667-85.333333H426.666667v-341.12c0-47.274667 38.186667-85.546667 85.333333-85.546667 47.445333 0 85.333333 38.314667 85.333333 85.546667V298.666667h341.12A85.418667 85.418667 0 0 1 1024 384c0 47.445333-38.314667 85.333333-85.546667 85.333333H597.333333V810.453333A85.418667 85.418667 0 0 1 512 896c-47.445333 0-85.333333-38.314667-85.333333-85.546667V469.333333z"  horiz-adv-x="1024" />

    
    <glyph glyph-name="hamigua" unicode="&#58896;" d="M512 384m-343.14 0a343.14 343.14 0 1 1 686.28 0 343.14 343.14 0 1 1-686.28 0ZM512 34a349 349 0 1 0 136.24 27.51A347.88 347.88 0 0 0 512 34z m0 686.27a336.27 336.27 0 1 1 237.78-98.49A334 334 0 0 1 512 720.27zM669.17 430.77c0 57.16-38.1 103.5-85.1 103.5-30.64 0-57.49-19.7-72.47-49.25-15.13 28.69-41.56 47.71-71.67 47.71-47 0-85.1-46.33-85.1-103.5 0-47.92 26.79-88.22 63.15-100 3.36-53.42 40-95.5 84.82-95.5 44.26 0 80.62 41.11 84.71 93.64 45.4 2.2 81.66 47.63 81.66 103.4zM421.83 483.56m-13.78 0a13.78 13.78 0 1 1 27.56 0 13.78 13.78 0 1 1-27.56 0ZM404.3 437.22m-13.78 0a13.78 13.78 0 1 1 27.56 0 13.78 13.78 0 1 1-27.56 0ZM420.58 395.9m-13.78 0a13.78 13.78 0 1 1 27.56 0 13.78 13.78 0 1 1-27.56 0ZM456.9 359.58m-13.78 0a13.78 13.78 0 1 1 27.56 0 13.78 13.78 0 1 1-27.56 0ZM469.42 314.5m-13.78 0a13.78 13.78 0 1 1 27.56 0 13.78 13.78 0 1 1-27.56 0ZM498.22 276.93m-13.78 0a13.78 13.78 0 1 1 27.56 0 13.78 13.78 0 1 1-27.56 0ZM542.06 314.5m-13.78 0a13.78 13.78 0 1 1 27.56 0 13.78 13.78 0 1 1-27.56 0ZM563.35 363.34m-13.78 0a13.78 13.78 0 1 1 27.56 0 13.78 13.78 0 1 1-27.56 0ZM607.18 399.65m-13.78 0a13.78 13.78 0 1 1 27.56 0 13.78 13.78 0 1 1-27.56 0ZM619.7 447.24m-13.78 0a13.78 13.78 0 1 1 27.56 0 13.78 13.78 0 1 1-27.56 0ZM594.65 491.07m-13.78 0a13.78 13.78 0 1 1 27.56 0 13.78 13.78 0 1 1-27.56 0ZM537.05 469.78m-13.78 0a13.78 13.78 0 1 1 27.56 0 13.78 13.78 0 1 1-27.56 0ZM476.93 472.29m-13.78 0a13.78 13.78 0 1 1 27.56 0 13.78 13.78 0 1 1-27.56 0ZM453.14 429.71m-13.78 0a13.78 13.78 0 1 1 27.56 0 13.78 13.78 0 1 1-27.56 0ZM490.71 392.14m-13.78 0a13.78 13.78 0 1 1 27.56 0 13.78 13.78 0 1 1-27.56 0ZM508.24 349.56m-13.78 0a13.78 13.78 0 1 1 27.56 0 13.78 13.78 0 1 1-27.56 0ZM558.34 399.65m-13.78 0a13.78 13.78 0 1 1 27.56 0 13.78 13.78 0 1 1-27.56 0ZM579.63 443.49m-13.78 0a13.78 13.78 0 1 1 27.56 0 13.78 13.78 0 1 1-27.56 0ZM514.5 428.46m-13.78 0a13.78 13.78 0 1 1 27.56 0 13.78 13.78 0 1 1-27.56 0Z"  horiz-adv-x="1024" />

    
    <glyph glyph-name="mangguo" unicode="&#58897;" d="M547.84 64.77a180.3 180.3 0 0 1 17.63 10.66l15.31-27c1.94-3.42-1.15-8.87-6.87-12.12s-12-3.1-13.92 0.32l-15.1 26.61zM382.2 719.58s86.17 38.17 198.2-81.25 108.34-227.75 115.73-280.69-11.08-249.92-129.27-297.93c-49.24-11.08-168.66 18.47-225.29 183.44-36.93 118.18 4.93 241.29 11.08 258.53S397 715.89 382.2 719.58zM546.22 49c-25.5 0-59 7.6-93.76 29.07-36.67 22.66-87.09 69.2-119 162.27l-0.08 0.22c-36.9 118.11 2.85 240.64 11.2 264 2.55 7.15 12.44 54.08 20.86 104.24 12.57 74.94 12 97.15 11.18 103.28l-20.81 5.21 22.94 10.15c1 0.43 24.27 10.49 61.87 4.8 33.78-5.12 86.55-24.55 146.11-88 99.85-106.44 109.64-204.48 115.48-263.06 0.85-8.48 1.58-15.81 2.49-22.34 3.49-25 1.73-89-17.82-154.47-16.3-54.62-49.79-125.44-116.73-152.63l-0.66-0.27-0.7-0.16a103.65 103.65 0 0 0-22.57-2.31zM349.76 245.83C404 88 517.18 57.9 564.29 68c60.17 24.83 90.87 90.5 106 141.32 18.76 62.87 20.55 123.63 17.26 147.16-1 6.87-1.74 14.7-2.57 23-5.63 56.4-15 150.8-110.9 253-30.7 32.72-79 73.61-134.82 82.58-20.86 3.36-36.68 1.18-45.57-0.89 1.36-11 0.53-37.1-11.05-106.46-8.39-50.26-18.67-99.8-21.91-108.88-7.98-22.5-46.18-140.17-10.97-253zM490.53 466s15.13 1.06 55.4-41.86 40.7-76.23 43.35-95.26-1.49-167-52-174.35c-43.09-1.24-62.79 73.86-75.48 133.2-9.32 43.52 1.77 86.73 4 92.93s30.04 83.99 24.73 85.34z"  horiz-adv-x="1024" />

    
    <glyph glyph-name="lizi" unicode="&#58898;" d="M508.35 729.44l7.3 0 0-75.7-7.3 0 0 75.7ZM501.97 727.62a10.03 6.38 0 1 1 20.06 0 10.03 6.38 0 1 1-20.06 0ZM798.75 327.44C797.65 179 685.83 57 541.42 42.29c-9.63-1-19.4 6.73-29.29 6.73s-19.7-7.7-29.39-6.72C337.47 57 218.92 179.18 225.5 327.44c3.88 87.33 53.23 101 93.26 150.26 52.56 64.7 103.52 196.56 193.37 196.56 86.56 0 131.68-123.12 184.24-183.79 43.55-50.27 103.06-71.14 102.38-163.03zM539.7 34c-6 0-11.51 2-16.47 3.89-4.06 1.5-7.89 2.92-11.1 2.92s-7.05-1.41-11.12-2.92c-5.67-2.09-12.09-4.47-19.09-3.76a301.73 301.73 0 0 0-190.78 95.08c-50.85 55.13-77.08 125.66-73.84 198.59 3 66.55 31.49 93 61.69 120.9 11.16 10.32 22.7 21 33.4 34.18C326 499.64 339.6 521.16 354 543.94c41 64.93 87.55 138.53 158.13 138.53 66.54 0 109.39-66.54 147.2-125.24 14.78-23 28.75-44.65 43.24-61.38 10.95-12.64 23.19-23.58 35-34.17 17.18-15.36 34.95-31.25 47.95-51.88 14.65-23.22 21.66-50.18 21.42-82.42a297.88 297.88 0 0 0-77.05-198.17 293 293 0 0 0-187.66-95.08 24.47 24.47 0 0 0-2.53-0.13z m-27.57 23.23c6.15 0 11.81-2.1 16.81-4 4.36-1.62 8.47-3.14 11.65-2.82a276.67 276.67 0 0 1 177.15 89.77 281.46 281.46 0 0 1 72.8 187.27c0.48 64.37-29.35 91.05-63.89 121.95-12.22 10.92-24.86 22.22-36.49 35.65-15.25 17.61-29.52 39.77-44.64 63.24-18.6 28.89-37.84 58.76-59.89 81.26-24 24.53-48.08 36.45-73.5 36.45-61.53 0-105.48-69.53-144.25-130.88-14.67-23.12-28.52-45.12-42.74-62.59-11.45-14.09-23.42-25.17-35-35.88-28.86-26.71-53.78-49.77-56.44-109.57-3-68.54 21.64-134.85 69.51-186.73a285.28 285.28 0 0 1 180.36-89.89c3.22-0.32 7.36 1.21 11.75 2.83 5 1.85 10.68 3.94 16.81 3.94zM508.35 303.04a165.54 3.65 90 1 1 7.3 0 165.54 3.65 90 1 1-7.3 0ZM480.36 270c-3.21-9.64-9.89-10-13.52-8.84s-8.72 5.54-5.52 15.18 18.21 22.94 18.21 22.94 4.04-19.62 0.83-29.28zM543.64 270c3.2-9.64 9.89-10 13.51-8.84s8.73 5.54 5.52 15.18-18.21 22.94-18.21 22.94-4.03-19.62-0.82-29.28z"  horiz-adv-x="1024" />

    
    <glyph glyph-name="caomei" unicode="&#58899;" d="M282.18 613.46a13.75 9.82 0 1 1 27.5 0 13.75 9.82 0 1 1-27.5 0ZM305.75 631.13a13.75 9.82 0 1 1 27.5 0 13.75 9.82 0 1 1-27.5 0ZM337.18 639.97a13.75 9.82 0 1 1 27.5 0 13.75 9.82 0 1 1-27.5 0ZM257.63 592.83a13.75 9.82 0 1 1 27.5 0 13.75 9.82 0 1 1-27.5 0ZM240.93 569.26a13.75 9.82 0 1 1 27.5 0 13.75 9.82 0 1 1-27.5 0ZM231.11 545.69a13.75 9.82 0 1 1 27.5 0 13.75 9.82 0 1 1-27.5 0ZM226.2 521.14a13.75 9.82 0 1 1 27.5 0 13.75 9.82 0 1 1-27.5 0ZM223.25 492.65a13.75 9.82 0 1 1 27.5 0 13.75 9.82 0 1 1-27.5 0ZM222.27 464.17a13.75 9.82 0 1 1 27.5 0 13.75 9.82 0 1 1-27.5 0ZM223.25 436.67a13.75 9.82 0 1 1 27.5 0 13.75 9.82 0 1 1-27.5 0ZM226.2 409.17a13.75 9.82 0 1 1 27.5 0 13.75 9.82 0 1 1-27.5 0ZM233.08 382.66a13.75 9.82 0 1 1 27.5 0 13.75 9.82 0 1 1-27.5 0ZM241.91 357.12a13.75 9.82 0 1 1 27.5 0 13.75 9.82 0 1 1-27.5 0ZM250.75 332.57a13.75 9.82 0 1 1 27.5 0 13.75 9.82 0 1 1-27.5 0ZM264.5 307.03a13.75 9.82 0 1 1 27.5 0 13.75 9.82 0 1 1-27.5 0ZM270.4 280.51a13.75 9.82 0 1 1 27.5 0 13.75 9.82 0 1 1-27.5 0ZM282.18 254.98a13.75 9.82 0 1 1 27.5 0 13.75 9.82 0 1 1-27.5 0ZM296.91 230.43a13.75 9.82 0 1 1 27.5 0 13.75 9.82 0 1 1-27.5 0ZM309.68 202.93a13.75 9.82 0 1 1 27.5 0 13.75 9.82 0 1 1-27.5 0ZM324.41 179.36a13.75 9.82 0 1 1 27.5 0 13.75 9.82 0 1 1-27.5 0ZM341.11 151.86a13.75 9.82 0 1 1 27.5 0 13.75 9.82 0 1 1-27.5 0ZM360.75 126.32a13.75 9.82 0 1 1 27.5 0 13.75 9.82 0 1 1-27.5 0ZM381.38 101.77a13.75 9.82 0 1 1 27.5 0 13.75 9.82 0 1 1-27.5 0ZM406.91 80.16a13.75 9.82 0 1 1 27.5 0 13.75 9.82 0 1 1-27.5 0ZM432.45 62.48a13.75 9.82 0 1 1 27.5 0 13.75 9.82 0 1 1-27.5 0ZM460.93 47.75a13.75 9.82 0 1 1 27.5 0 13.75 9.82 0 1 1-27.5 0ZM496.29 43.82a13.75 9.82 0 1 1 27.5 0 13.75 9.82 0 1 1-27.5 0ZM714.32 618.37a13.75 9.82 0 1 1 27.5 0 13.75 9.82 0 1 1-27.5 0ZM685.84 634.08a13.75 9.82 0 1 1 27.5 0 13.75 9.82 0 1 1-27.5 0ZM655.39 639.97a13.75 9.82 0 1 1 27.5 0 13.75 9.82 0 1 1-27.5 0ZM738.87 597.74a13.75 9.82 0 1 1 27.5 0 13.75 9.82 0 1 1-27.5 0ZM755.57 574.17a13.75 9.82 0 1 1 27.5 0 13.75 9.82 0 1 1-27.5 0ZM765.39 550.6a13.75 9.82 0 1 1 27.5 0 13.75 9.82 0 1 1-27.5 0ZM770.3 526.05a13.75 9.82 0 1 1 27.5 0 13.75 9.82 0 1 1-27.5 0ZM773.25 497.56a13.75 9.82 0 1 1 27.5 0 13.75 9.82 0 1 1-27.5 0ZM774.23 469.08a13.75 9.82 0 1 1 27.5 0 13.75 9.82 0 1 1-27.5 0ZM773.25 441.58a13.75 9.82 0 1 1 27.5 0 13.75 9.82 0 1 1-27.5 0ZM770.3 414.08a13.75 9.82 0 1 1 27.5 0 13.75 9.82 0 1 1-27.5 0ZM763.42 387.57a13.75 9.82 0 1 1 27.5 0 13.75 9.82 0 1 1-27.5 0ZM754.59 362.03a13.75 9.82 0 1 1 27.5 0 13.75 9.82 0 1 1-27.5 0ZM745.75 337.48a13.75 9.82 0 1 1 27.5 0 13.75 9.82 0 1 1-27.5 0ZM732.98 311.94a13.75 9.82 0 1 1 27.5 0 13.75 9.82 0 1 1-27.5 0ZM721.19 285.42a13.75 9.82 0 1 1 27.5 0 13.75 9.82 0 1 1-27.5 0ZM710.39 259.89a13.75 9.82 0 1 1 27.5 0 13.75 9.82 0 1 1-27.5 0ZM695.66 235.34a13.75 9.82 0 1 1 27.5 0 13.75 9.82 0 1 1-27.5 0ZM680.93 207.84a13.75 9.82 0 1 1 27.5 0 13.75 9.82 0 1 1-27.5 0ZM664.23 184.27a13.75 9.82 0 1 1 27.5 0 13.75 9.82 0 1 1-27.5 0ZM644.59 156.77a13.75 9.82 0 1 1 27.5 0 13.75 9.82 0 1 1-27.5 0ZM622.98 131.23a13.75 9.82 0 1 1 27.5 0 13.75 9.82 0 1 1-27.5 0ZM601.37 106.68a13.75 9.82 0 1 1 27.5 0 13.75 9.82 0 1 1-27.5 0ZM578.78 85.07a13.75 9.82 0 1 1 27.5 0 13.75 9.82 0 1 1-27.5 0ZM560.12 67.39a13.75 9.82 0 1 1 27.5 0 13.75 9.82 0 1 1-27.5 0ZM535.57 52.66a13.75 9.82 0 1 1 27.5 0 13.75 9.82 0 1 1-27.5 0ZM585.74 701.48c-19.86-12.26-35-28.71-45.88-43.79-0.25 3.05-0.62 6.13-1.17 9.23-7 39.46-37.33 67.08-37.33 67.08s-19.08-36.35-12.12-75.8a106.44 106.44 0 0 1 7.47-24.27c-10.95 17.86-28.75 40.83-54.53 56.75-48 29.64-105.48 23.58-105.48 23.58s20.3-54.11 68.3-83.75 105.49-23.58 105.49-23.58-1.13 3.07-3.49 8.17a134.56 134.56 0 0 1 19.62-24 132.57 132.57 0 0 1 9.49 26.19c20.87 0.61 55.83 4.86 86.84 24 48 29.64 68.33 83.75 68.33 83.75s-57.54 6.08-105.54-23.56zM505.57 49.23c-72.11 0-177.57 98.77-253.39 325.35-14.45 43.21-45.1 232.14 84 255 207.17 36.62 253.76 18.63 336.51 3.43 168.59-31 111-215.24 91.88-263.38-80.27-202.49-190.29-320.4-259-320.4zM505.57 49.23c-72.11 0-40.12 98.78-115.89 325.35-14.45 43.21-47.78 248.11 81.07 272.27 15.71 2.94 51.78 9.83 71.7 2 133.95-52.95 103.7-231.11 84.61-279.25-80.26-202.46-52.78-320.37-121.49-320.37zM508.07 69.36c-47.14-1-43.07 108.17-99.59 301.49-19.25 65.82 4.33 271.09 100.57-105.07 62.86 368.3 120.81 175.8 96.25 102.14-58.06-174.19-57.76-297.74-97.23-298.56z"  horiz-adv-x="1024" />

    
    <glyph glyph-name="ningmeng" unicode="&#58900;" d="M512 384m-350 0a350 350 0 1 1 700 0 350 350 0 1 1-700 0ZM512 384m-322.07 0a322.07 322.07 0 1 1 644.14 0 322.07 322.07 0 1 1-644.14 0ZM515.73 393.56h-7.46a8.18 8.18 0 0 0-8 6.33l-61.22 263.66c0 7.53 21.82 30 75 30 60.05 0 70.9-22.46 70.9-30L523.7 399.89a8.18 8.18 0 0 0-7.97-6.33zM515.73 374.44h-7.46a8.18 8.18 0 0 1-8-6.33l-61.22-263.66c0-7.53 21.82-30 75-30 60.05 0 70.9 22.46 70.9 30L523.7 368.11a8.18 8.18 0 0 1-7.97 6.33zM521.56 380.27v7.46a8.18 8.18 0 0 0 6.33 8l263.66 61.25c7.53 0 30-21.82 30-75 0-60.05-22.46-70.9-30-70.9L527.89 372.3a8.18 8.18 0 0 0-6.33 7.97zM502.44 380.27v7.46a8.18 8.18 0 0 1-6.33 8l-263.66 61.22c-7.53 0-30-21.82-30-75 0-60.05 22.46-70.9 30-70.9l263.66 61.25a8.18 8.18 0 0 1 6.33 7.97zM521.39 388.12l-5.27 5.27a8.2 8.2 0 0 0-1.12 10.12l143.08 229.74c5.33 5.33 36.64 5.79 74.25-31.82 42.46-42.46 34.25-66 28.92-71.35L531.51 387a8.2 8.2 0 0 0-10.12 1.12zM507.88 374.61l-5.27 5.27a8.2 8.2 0 0 1-10.12 1.12L262.75 237.92c-5.33-5.33-5.79-36.64 31.82-74.25 42.46-42.46 66-34.25 71.35-28.92L509 364.49a8.2 8.2 0 0 1-1.12 10.12zM516.12 374.61l5.27 5.27a8.2 8.2 0 0 0 10.12 1.12l229.74-143.08c5.33-5.33 5.79-36.64-31.82-74.25-42.46-42.46-66-34.25-71.35-28.92L515 364.49a8.2 8.2 0 0 0 1.12 10.12zM502.61 388.12l5.27 5.27a8.2 8.2 0 0 1 1.12 10.12L365.92 633.25c-5.33 5.33-36.64 5.79-74.25-31.82-42.46-42.46-34.25-66-28.92-71.35L492.49 387a8.2 8.2 0 0 1 10.12 1.12z"  horiz-adv-x="1024" />

    
    <glyph glyph-name="mihoutao" unicode="&#58901;" d="M512 384m-350 0a350 350 0 1 1 700 0 350 350 0 1 1-700 0ZM512 384m-339.29 0a339.29 339.29 0 1 1 678.58 0 339.29 339.29 0 1 1-678.58 0ZM757.8 393.08c0-6.28-109.49-21.95-110.32-28-1.48-11.08 89.26-49.81 85.22-59.87-4.11-10.22-103.07 8.25-109.42-0.55-6-8.29 34.8-62.46 27.13-69.19-5.65-5-59.4 37.13-65.83 33.16-5.6-3.46 6.38-72.37 0.28-75s-30.22 61.07-36.7 59.37c-5-1.32-11.08-58.63-16.3-59.37-6.23-0.88-11.67 54.94-18.14 54.94-4.66 0-20.56-44.24-25.1-43.78-5.26 0.53 0.88 45.84-4.18 47s-60.63-86.34-65.56-84.62c-5.12 1.78 40.3 92.79 35.49 95.15-5.28 2.58-97.58-67.69-102.44-64.47-4.45 3 78.5 79.37 74.44 82.82-3.65 3.09-157.61-45.83-160.91-42.37-2.88 3 144.86 58.4 142.26 61.69-3.11 3.94-90.78-6-93.44-1.71-2.82 4.51 79.4 23.24 77.13 28.09-3.35 7.15-133.64 3.19-135.71 11-1.7 6.49 124.53 24.72 123.78 31.63-0.51 4.78-76.36 15-76.36 19.87 0 5.37 75.9 5.35 76.51 10.56 0.75 6.45-67 26.54-65.35 32.68 1.91 7.22 73.36 0.42 76.39 7.11 2.36 5.2-89.13 63.38-86.16 68.21s100.4-43.71 103.94-39.32c3.71 4.63-24.54 45-20.25 49.08 3 2.9 38.46-30.34 41.74-27.74 4.51 3.57-46.69 88.92-41.74 91.9s66.31-76.26 71.8-73.88c6.09 2.65-8.59 70.75-2.07 72.48 5.44 1.45 32-63.33 37.7-62.57 3 0.4 8.33 83.49 8.33 83.49s6.7-82.29 9.76-82.29 6.08-0.1 9.07-0.3c5.26-0.34 16.54 41.69 21.62 40.75 5.36-1 4.51-45 9.63-46.57 4.17-1.3 36.59 69.18 40.58 67.49 6.06-2.56-16.45-77.53-10.88-80.91 4.87-3 41.31 28.66 45.75 25.12 3.88-3.09-24.17-41.27-20.65-44.76a136.86 136.86 0 0 0 9.25-10.16c3.27-4 65.78 34.16 68.58 29.82 3.41-5.27-53-53.1-50.35-58.85 1.65-3.57 58.77 11 60.11 7.24 3.15-8.74-50.2-36.1-48.92-45.57 0.81-5.97 110.29-2.59 110.29-8.8zM513.72 384m-73.91 0a73.91 73.91 0 1 1 147.82 0 73.91 73.91 0 1 1-147.82 0ZM605.93 384a11.94 4.62 0 1 1 23.88 0 11.94 4.62 0 1 1-23.88 0ZM602.067883 410.209192a11.94 4.62 16.5 1 1 22.896615 6.782287 11.94 4.62 16.5 1 1-22.896615-6.782287ZM589.572572 430.843214a11.94 4.62 32.9 1 1 20.050122 12.971006 11.94 4.62 32.9 1 1-20.050122-12.971006ZM573.393536 453.999125a11.94 4.62 49.49 1 1 15.511989 18.155787 11.94 4.62 49.49 1 1-15.511989-18.155787ZM550.960855 468.073757a11.94 4.62 65.99 1 1 9.716679 21.81377 11.94 4.62 65.99 1 1-9.716679-21.81377ZM525.525491 475.121226a11.94 4.62 82.48 1 1 3.12523 23.674614 11.94 4.62 82.48 1 1-3.12523-23.674614ZM492.598295 485.790987a4.62 11.94 8.98 1 1 9.126744 1.442269 4.62 11.94 8.98 1 1-9.126744-1.442269ZM464.484367 475.620357a4.62 11.94 25.48 1 1 8.341276 3.975011 4.62 11.94 25.48 1 1-8.341276-3.975011ZM440.414851 457.78894a4.62 11.94 41.97 1 1 6.869895 6.17917 4.62 11.94 41.97 1 1-6.869895-6.17917ZM422.3904 433.946623a4.62 11.94 58.47 1 1 4.832011 7.875866 4.62 11.94 58.47 1 1-4.832011-7.875866ZM411.856735 405.96481a4.62 11.94 74.97 1 1 2.396161 8.923901 4.62 11.94 74.97 1 1-2.396161-8.923901ZM397.727346 380.471458a11.94 4.62 1.47 1 1 23.87214 0.612606 11.94 4.62 1.47 1 1-23.87214-0.612606ZM403.371641 347.599908a11.94 4.62 17.96 1 1 22.716376 7.363468 11.94 4.62 17.96 1 1-22.716376-7.363468ZM418.182122 317.781705a11.94 4.62 34.46 1 1 19.689572 13.512039 11.94 4.62 34.46 1 1-19.689572-13.512039ZM440.832977 293.400701a11.94 4.62 50.96 1 1 15.041123 18.547749 11.94 4.62 50.96 1 1-15.041123-18.547749ZM469.502244 276.336228a11.94 4.62 67.45 1 1 9.15773 22.05426 11.94 4.62 67.45 1 1-9.15773-22.05426ZM501.790318 268.230776a11.94 4.62 83.95 1 1 2.516864 23.746995 11.94 4.62 83.95 1 1-2.516864-23.746995ZM528.383238 280.54306a4.62 11.94 10.45 1 1 9.086742 1.675928 4.62 11.94 10.45 1 1-9.086742-1.675928ZM557.042561 288.857343a4.62 11.94 26.94 1 1 8.237288 4.186249 4.62 11.94 26.94 1 1-8.237288-4.186249ZM582.196264 305.11125a4.62 11.94 43.44 1 1 6.709116 6.353374 4.62 11.94 43.44 1 1-6.709116-6.353374ZM601.682538 327.826402a4.62 11.94 59.94 1 1 4.628377 7.997232 4.62 11.94 59.94 1 1-4.628377-7.997232ZM613.987179 355.022664a4.62 11.94 76.43 1 1 2.168011 8.982056 4.62 11.94 76.43 1 1-2.168011-8.982056Z"  horiz-adv-x="1024" />

    
    <glyph glyph-name="niuyouguo" unicode="&#58902;" d="M508 677.52a135.89 135.89 0 0 0 22-1.22l0.79 46.72c0.09 5.92-5.57 10.86-12.59 11s-12.85-4.63-13-10.55l-0.77-46.08c1.22 0.04 2.4 0.1 3.57 0.13zM701.4 206c-2.22-132.25-87.64-168.2-192.23-166.44S320.4 80.15 322.62 212.41c1 59.69 45.85 149.19 75.15 244.93 35.63 116.4 61 235.19 118.39 234.23 52.3-0.88 60.24-109.87 93.75-214.5S702.51 272.18 701.4 206zM509.07 34.06c-60.41 1-105.45 13.76-137.69 39-37.77 29.53-56.39 76.47-55.33 139.51 0.66 39.43 19.46 90 41.23 148.5 11.71 31.51 23.83 64.08 34.13 97.74 5 16.3 9.82 32.8 14.49 48.75C435.83 609.74 461.69 698 516.25 697.11c43.35-0.73 58.22-60 77-134.94 6.84-27.24 13.92-55.41 23-83.68 12.46-38.9 28.32-76.83 43.66-113.51 26.17-62.58 48.77-116.63 48.06-159-1.06-63-21.24-109.32-60-137.57-33.04-24.14-78.48-35.41-138.9-34.35z m7 652c-44.11 0.74-70-87.65-97.4-181.23-4.68-16-9.52-32.5-14.53-48.86-10.38-33.93-22.55-66.64-34.31-98.28-21.46-57.7-40-107.53-40.63-145.35-1-59.76 16.19-103.89 51.1-131.17 29.74-23.26 71.93-35 129-36s99.59 9.39 130.1 31.63c35.8 26.1 54.46 69.63 55.47 129.38 0.67 40.43-22.63 96.17-47.31 155.19-15.42 36.88-31.37 75-44 114.3-9.15 28.57-16.26 56.89-23.13 84.28-16.92 67.35-31.52 125.52-64.36 126.05zM656.86 217.34C655 107.12 597 76.95 509.82 78.41S365.67 112 367.52 222.19C368.35 271.93 406 362 430.4 441.82c29.69 97 37.68 196.21 85.51 195.41 43.58-0.73 37-91.34 65-178.52s76.88-186.27 75.95-241.37zM577.21 241.84c0-45.77-27.39-82.87-61.17-82.87s-61.17 37.1-61.17 82.87 43.41 80.23 61.17 82.87c15.02 2.22 61.17-37.11 61.17-82.87z"  horiz-adv-x="1024" />

    
    <glyph glyph-name="huolongguo" unicode="&#58903;" d="M512 384m-350 0a350 350 0 1 1 700 0 350 350 0 1 1-700 0ZM512 384m-303.18 0a303.18 303.18 0 1 1 606.36 0 303.18 303.18 0 1 1-606.36 0ZM517.57 428.59c0-8.73-5.57-15.79-5.57-15.79s-5.57 7.06-5.57 15.79 2.49 15.79 5.57 15.79 5.57-7.07 5.57-15.79zM517.57 339.41c0 8.73-5.57 15.79-5.57 15.79s-5.57-7.06-5.57-15.79 2.49-15.79 5.57-15.79 5.57 7.07 5.57 15.79zM467.41 389.57c8.73 0 15.79-5.57 15.79-5.57s-7.06-5.57-15.79-5.57-15.79 2.49-15.79 5.57 7.07 5.57 15.79 5.57zM556.59 389.57c-8.73 0-15.79-5.57-15.79-5.57s7.06-5.57 15.79-5.57 15.79 2.49 15.79 5.57-7.07 5.57-15.79 5.57zM367.1 389.57c8.72 0 15.79-5.57 15.79-5.57s-7.07-5.57-15.79-5.57-15.8 2.49-15.8 5.57 7.07 5.57 15.8 5.57zM656.9 389.57c-8.72 0-15.79-5.57-15.79-5.57s7.07-5.57 15.79-5.57 15.8 2.49 15.8 5.57-7.07 5.57-15.8 5.57zM517.57 528.9c0-8.72-5.57-15.79-5.57-15.79s-5.57 7.07-5.57 15.79 2.49 15.8 5.57 15.8 5.57-7.07 5.57-15.8zM517.57 239.1c0 8.72-5.57 15.79-5.57 15.79s-5.57-7.07-5.57-15.79 2.49-15.8 5.57-15.8 5.57 7.07 5.57 15.8zM479.88 525.41c2.26-8.42-1.3-16.7-1.3-16.7s-7.21 5.39-9.47 13.81-1.67 15.9 1.3 16.7 7.21-5.39 9.47-13.81zM554.89 245.48c-2.26 8.42-9.47 13.81-9.47 13.81s-3.56-8.28-1.3-16.7 6.5-14.61 9.47-13.81 3.55 8.22 1.3 16.7zM444.37 512.28c4.36-7.56 3.07-16.46 3.07-16.46s-8.36 3.33-12.72 10.88-5.73 14.93-3.07 16.47 8.35-3.34 12.72-10.89zM589.28 261.3c-4.36 7.55-12.72 10.88-12.72 10.88s-1.29-8.9 3.07-16.46 10-12.43 12.72-10.89 1.29 8.91-3.07 16.47zM413.48 490.4c6.16-6.16 7.22-15.1 7.22-15.1s-8.94 1.06-15.1 7.22-9.41 12.93-7.23 15.11 8.94-1.06 15.11-7.23zM618.4 285.48c-6.16 6.16-15.1 7.22-15.1 7.22s1.06-8.94 7.22-15.1 12.93-9.41 15.11-7.23-1.06 8.94-7.23 15.11zM389.3 461.28c7.55-4.36 10.88-12.72 10.88-12.72s-8.9-1.29-16.46 3.07-12.43 10.05-10.89 12.72 8.91 1.29 16.47-3.07zM640.28 316.37c-7.56 4.36-16.46 3.07-16.46 3.07s3.33-8.36 10.88-12.72 14.93-5.73 16.47-3.07-3.34 8.35-10.89 12.72zM373.48 426.89c8.42-2.26 13.81-9.47 13.81-9.47s-8.28-3.56-16.7-1.3-14.61 6.5-13.81 9.47 8.27 3.55 16.7 1.3zM653.41 351.88c-8.42 2.26-16.7-1.3-16.7-1.3s5.39-7.21 13.81-9.47 15.9-1.67 16.7 1.3-5.39 7.21-13.81 9.47zM370.59 351.88c8.42 2.26 16.7-1.3 16.7-1.3s-5.39-7.21-13.81-9.47-15.9-1.67-16.7 1.3 5.39 7.21 13.81 9.47zM650.52 426.89c-8.42-2.26-13.81-9.47-13.81-9.47s8.28-3.56 16.7-1.3 14.61 6.5 13.81 9.47-8.22 3.55-16.7 1.3zM383.72 316.37c7.56 4.36 16.46 3.07 16.46 3.07s-3.33-8.36-10.88-12.72-14.93-5.73-16.47-3.07 3.34 8.35 10.89 12.72zM634.7 461.28c-7.55-4.36-10.88-12.72-10.88-12.72s8.9-1.29 16.46 3.07 12.43 10.05 10.89 12.72-8.91 1.29-16.47-3.07zM405.6 285.48c6.16 6.16 15.1 7.22 15.1 7.22s-1.06-8.94-7.22-15.1-12.93-9.41-15.11-7.23 1.06 8.94 7.23 15.11zM610.52 490.4c-6.16-6.16-7.22-15.1-7.22-15.1s8.94 1.06 15.1 7.22 9.41 12.93 7.23 15.11-8.94-1.06-15.11-7.23zM434.72 261.3c4.36 7.55 12.72 10.88 12.72 10.88s1.29-8.9-3.07-16.46-10.05-12.43-12.72-10.89-1.29 8.91 3.07 16.47zM579.63 512.28c-4.36-7.56-3.07-16.46-3.07-16.46s8.36 3.33 12.72 10.88 5.73 14.93 3.07 16.47-8.35-3.34-12.72-10.89zM469.11 245.48c2.26 8.42 9.47 13.81 9.47 13.81s3.56-8.28 1.3-16.7-6.5-14.61-9.47-13.81-3.55 8.22-1.3 16.7zM544.12 525.41c-2.26-8.42 1.3-16.7 1.3-16.7s7.21 5.39 9.47 13.81 1.67 15.9-1.3 16.7-7.21-5.39-9.47-13.81zM517.57 629.22c0-8.72-5.57-15.79-5.57-15.79s-5.57 7.07-5.57 15.79S508.92 645 512 645s5.57-7.06 5.57-15.78zM517.57 138.78c0 8.72-5.57 15.79-5.57 15.79s-5.57-7.07-5.57-15.79S508.92 123 512 123s5.57 7.06 5.57 15.78zM453.91 622.31c2.26-8.42-1.29-16.7-1.29-16.7s-7.21 5.39-9.47 13.81-1.68 15.9 1.29 16.7 7.22-5.39 9.47-13.81zM580.85 148.58c-2.26 8.42-9.47 13.81-9.47 13.81s-3.55-8.28-1.29-16.7 6.49-14.61 9.47-13.81 3.55 8.27 1.29 16.7zM394.22 599.16c4.36-7.56 3.06-16.47 3.06-16.47s-8.36 3.34-12.72 10.89-5.73 14.93-3.07 16.46 8.36-3.33 12.73-10.88zM639.44 174.42c-4.36 7.55-12.72 10.89-12.72 10.89s-1.3-8.91 3.06-16.47 10.06-12.42 12.73-10.88 1.29 8.9-3.07 16.46zM342.54 561.34c6.17-6.17 7.23-15.11 7.23-15.11s-8.94 1.06-15.11 7.23-9.4 12.93-7.22 15.1 8.94-1.05 15.1-7.22zM689.34 214.54c-6.17 6.17-15.11 7.23-15.11 7.23s1.06-8.94 7.23-15.11 12.93-9.4 15.1-7.22-1.05 8.94-7.22 15.1zM302.42 511.44c7.55-4.36 10.89-12.72 10.89-12.72s-8.91-1.3-16.47 3.06-12.42 10.06-10.84 12.73 8.86 1.29 16.42-3.07zM727.16 266.22c-7.56 4.36-16.47 3.06-16.47 3.06s3.34-8.36 10.89-12.72 14.93-5.73 16.46-3.07-3.33 8.36-10.88 12.73zM276.58 452.85c8.42-2.26 13.81-9.47 13.81-9.47s-8.28-3.55-16.7-1.29-14.61 6.49-13.81 9.47 8.27 3.55 16.7 1.29zM750.31 325.91c-8.42 2.26-16.7-1.29-16.7-1.29s5.39-7.21 13.81-9.47 15.9-1.68 16.7 1.29-5.39 7.22-13.81 9.47zM266.78 389.57c8.72 0 15.79-5.57 15.79-5.57s-7.07-5.57-15.79-5.57S251 380.92 251 384s7.06 5.57 15.78 5.57zM757.22 389.57c-8.72 0-15.79-5.57-15.79-5.57s7.07-5.57 15.79-5.57S773 380.92 773 384s-7.06 5.57-15.78 5.57zM273.69 325.91c8.42 2.26 16.7-1.29 16.7-1.29s-5.39-7.21-13.81-9.47-15.9-1.68-16.7 1.29 5.39 7.22 13.81 9.47zM747.42 452.85c-8.42-2.26-13.81-9.47-13.81-9.47s8.28-3.55 16.7-1.29 14.61 6.49 13.81 9.47-8.27 3.55-16.7 1.29zM296.84 266.22c7.56 4.36 16.47 3.06 16.47 3.06s-3.34-8.36-10.89-12.72-14.93-5.73-16.46-3.07 3.33 8.36 10.88 12.73zM721.58 511.44c-7.55-4.36-10.89-12.72-10.89-12.72s8.91-1.3 16.47 3.06 12.42 10.06 10.88 12.73-8.9 1.29-16.46-3.07zM334.66 214.54c6.17 6.17 15.11 7.23 15.11 7.23s-1.06-8.94-7.23-15.11-12.93-9.4-15.1-7.22 1.05 8.94 7.22 15.1zM681.46 561.34c-6.17-6.17-7.23-15.11-7.23-15.11s8.94 1.06 15.11 7.23 9.4 12.93 7.22 15.1-8.94-1.05-15.1-7.22zM384.56 174.42c4.36 7.55 12.72 10.89 12.72 10.89s1.3-8.91-3.06-16.47-10.06-12.42-12.73-10.84-1.29 8.86 3.07 16.42zM629.78 599.16c-4.36-7.56-3.06-16.47-3.06-16.47s8.36 3.34 12.72 10.89 5.73 14.93 3.07 16.46-8.36-3.33-12.73-10.88zM443.15 148.58c2.26 8.42 9.47 13.81 9.47 13.81s3.55-8.28 1.29-16.7-6.49-14.61-9.47-13.81-3.55 8.27-1.29 16.7zM570.09 622.31c-2.26-8.42 1.29-16.7 1.29-16.7s7.21 5.39 9.47 13.81 1.68 15.9-1.29 16.7-7.22-5.39-9.47-13.81z"  horiz-adv-x="1024" />

    
    <glyph glyph-name="qingning" unicode="&#58904;" d="M512 384m-350 0a350 350 0 1 1 700 0 350 350 0 1 1-700 0ZM512 384m-322.07 0a322.07 322.07 0 1 1 644.14 0 322.07 322.07 0 1 1-644.14 0ZM515.73 393.56h-7.46a8.18 8.18 0 0 0-8 6.33l-61.22 263.66c0 7.53 21.82 30 75 30 60.05 0 70.9-22.46 70.9-30L523.7 399.89a8.18 8.18 0 0 0-7.97-6.33zM515.73 374.44h-7.46a8.18 8.18 0 0 1-8-6.33l-61.22-263.66c0-7.53 21.82-30 75-30 60.05 0 70.9 22.46 70.9 30L523.7 368.11a8.18 8.18 0 0 1-7.97 6.33zM521.56 380.27v7.46a8.18 8.18 0 0 0 6.33 8l263.66 61.25c7.53 0 30-21.82 30-75 0-60.05-22.46-70.9-30-70.9L527.89 372.3a8.18 8.18 0 0 0-6.33 7.97zM502.44 380.27v7.46a8.18 8.18 0 0 1-6.33 8l-263.66 61.22c-7.53 0-30-21.82-30-75 0-60.05 22.46-70.9 30-70.9l263.66 61.25a8.18 8.18 0 0 1 6.33 7.97zM521.39 388.12l-5.27 5.27a8.2 8.2 0 0 0-1.12 10.12l143.08 229.74c5.33 5.33 36.64 5.79 74.25-31.82 42.46-42.46 34.25-66 28.92-71.35L531.51 387a8.2 8.2 0 0 0-10.12 1.12zM507.88 374.61l-5.27 5.27a8.2 8.2 0 0 1-10.12 1.12L262.75 237.92c-5.33-5.33-5.79-36.64 31.82-74.25 42.46-42.46 66-34.25 71.35-28.92L509 364.49a8.2 8.2 0 0 1-1.12 10.12zM516.12 374.61l5.27 5.27a8.2 8.2 0 0 0 10.12 1.12l229.74-143.08c5.33-5.33 5.79-36.64-31.82-74.25-42.46-42.46-66-34.25-71.35-28.92L515 364.49a8.2 8.2 0 0 0 1.12 10.12zM502.61 388.12l5.27 5.27a8.2 8.2 0 0 1 1.12 10.12L365.92 633.25c-5.33 5.33-36.64 5.79-74.25-31.82-42.46-42.46-34.25-66-28.92-71.35L492.49 387a8.2 8.2 0 0 1 10.12 1.12z"  horiz-adv-x="1024" />

    
    <glyph glyph-name="taozi" unicode="&#58905;" d="M618.93 734s-1.22-52.78-33.47-93.63-83.3-54.31-83.3-54.31 1.23 52.78 33.47 93.63 83.3 54.31 83.3 54.31zM489.57 730.07l17.86 0 0-132.56-17.86 0 0 132.56ZM827 347.91c0-178.28-160-307.25-338.34-307.25S197 161.85 197 340.13c0 139.35 88.3 258.08 212 303.29 32.83 12 62.32-20 99.15-19.37 1.94 0 85.56 31.11 106.42 24.76C746.65 608.58 827 493.22 827 347.91zM488.66 34c-88.78 0-164 29.37-217.5 84.92-52.89 54.93-80.85 131.42-80.85 221.21a329.57 329.57 0 0 0 216.37 309.54c20.8 7.61 40.06-0.26 58.68-7.87 13.36-5.46 27.17-11.1 41.65-11.1h0.21c1.18 0.37 3.86 1.27 6.68 2.22 58.43 19.7 89.11 26.36 102.57 22.26 66.1-20.12 121.18-59.4 159.3-113.58 37.89-53.85 57.92-120.83 57.92-193.69 0-86.38-37.15-166.46-104.6-225.49a352.27 352.27 0 0 0-110-65.07A373.59 373.59 0 0 0 488.66 34z m-64.27 605.46a37.81 37.81 0 0 1-13.14-2.3 316.27 316.27 0 0 1-207.62-297c0-86.27 26.67-159.57 77.13-212 50.93-52.89 122.82-80.84 207.9-80.84a360.29 360.29 0 0 1 125.77 22.52 339.38 339.38 0 0 1 105.89 62.6c64.52 56.47 100 133 100 215.47 0 70.1-19.19 134.43-55.49 186s-89.06 89.26-152.29 108.51c-2.78 0.84-12.61 1.91-43.9-6.46-19.57-5.24-39.71-12-50.54-15.68-8.22-2.78-8.55-2.89-9.92-2.91-17.55-0.31-33 6-47.91 12.08-12.81 5.27-24.41 10.01-35.88 10.01zM618.24 359.08c0-81.17-58.21-145.52-96-139.7-23.87 3.62-101.91 14.55-104.82 145.52-0.78 35 29.11 81.49 64 104.77 34.67 23.12 55.3 58.21 55.3 58.21s18.76-23.81 40.74-52.39c29.14-37.83 40.78-98.63 40.78-116.41zM480.89 166.4c-38.52-73.53-70.74-80.86-143.95-83 42.41-25.67 93.85-39 151.72-39a349 349 0 0 1 121.82 21.8 330.51 330.51 0 0 1 88.87 49.36c-133.81-4.56-141.77 51.28-160.13 58.62-14.88 5.95-50.56 7.82-58.33-7.78zM539.22 174.18c-14.88 6-50.56 7.78-58.33-7.78-2.11-4-4.19-7.81-6.26-11.44 8.18-16.15 21-26.58 35.43-26.58 17.29 0 32.25 15 39.69 36.82-3.75 4.29-6.96 7.55-10.53 8.98z"  horiz-adv-x="1024" />

    
    <glyph glyph-name="pingguo" unicode="&#58908;" d="M512 367.19m-333.19 0a333.19 333.19 0 1 1 666.38 0 333.19 333.19 0 1 1-666.38 0ZM645.8 734s-1.36-58.64-37.18-104-92.55-60.33-92.55-60.33 1.36 58.64 37.19 104S645.8 734 645.8 734zM502.08 729.63l19.85 0 0-147.27-19.85 0 0 147.27ZM807.59 368.24c0-161-130.47-291.42-291.41-291.42S224.76 207.29 224.76 368.24c0 120.71 73.39 224.27 178 268.51 8.32 3.52 41.24-43.13 111.34-41.86 57.45 1.05 98.64 48.54 107.16 45.24C730.27 598 807.59 492.14 807.59 368.24zM563.18 345.26c0-45.49-51.18-142.5-51.18-142.5s-51.18 97-51.18 142.5S512 498.2 512 498.2s51.18-107.45 51.18-152.94zM512 182.62l-8.31 15.76c-2.14 4-52.27 99.61-52.27 146.88 0 20 8.83 52.67 26.24 97 12.77 32.48 25.72 59.74 25.85 60l8.49 17.8 8.49-17.82c2.12-4.46 52.09-109.91 52.09-157 0-47.27-50.13-142.84-52.27-146.88z m0 292.91c-14.33-32.35-41.78-98.45-41.78-130.27S497.76 252.9 512 223.7c14.24 29.2 41.78 89.79 41.78 121.56S526.33 443.19 512 475.53zM545.467699 419.976042a16.19 6.27 45 1 1 22.896117 22.896117 16.19 6.27 45 1 1-22.896117-22.896117ZM553.52839 261.969733a6.27 16.19 45 1 1 8.867119 8.867119 6.27 16.19 45 1 1-8.867119-8.867119ZM574.42438 342.644084a6.27 16.19 87.73 1 1 0.496692 12.53016 6.27 16.19 87.73 1 1-0.496692-12.53016ZM461.329269 426.997612a6.27 16.19 45 1 1 8.867119 8.867119 6.27 16.19 45 1 1-8.867119-8.867119ZM453.27277 254.953941a16.19 6.27 45 1 1 22.896117 22.896118 16.19 6.27 45 1 1-22.896117-22.896118ZM431.840226 348.283086a16.19 6.27 2.27 1 1 32.354591 1.282527 16.19 6.27 2.27 1 1-32.354591-1.282527Z"  horiz-adv-x="1024" />

    
    <glyph glyph-name="mugua" unicode="&#58909;" d="M512 384m-350 0a350 350 0 1 1 700 0 350 350 0 1 1-700 0ZM512 384m-334 0a334 334 0 1 1 668 0 334 334 0 1 1-668 0ZM658 252c-1.14-80.63-65.37-146-146-146s-147.17 65.37-146 146c1 69 55.47 97.23 75 175 26.73 106.43 24.41 228 71 228 44 0 42.23-111.58 69-212 22.24-83.44 78-120 77-191zM515.5 560.5m-12.5 0a12.5 12.5 0 1 1 25 0 12.5 12.5 0 1 1-25 0ZM529.5 527.5m-12.5 0a12.5 12.5 0 1 1 25 0 12.5 12.5 0 1 1-25 0ZM540.5 501.5m-12.5 0a12.5 12.5 0 1 1 25 0 12.5 12.5 0 1 1-25 0ZM554.5 470.5m-12.5 0a12.5 12.5 0 1 1 25 0 12.5 12.5 0 1 1-25 0ZM552.5 438.5m-12.5 0a12.5 12.5 0 1 1 25 0 12.5 12.5 0 1 1-25 0ZM555.5 407.5m-12.5 0a12.5 12.5 0 1 1 25 0 12.5 12.5 0 1 1-25 0ZM573.5 375.5m-12.5 0a12.5 12.5 0 1 1 25 0 12.5 12.5 0 1 1-25 0ZM583.5 342.5m-12.5 0a12.5 12.5 0 1 1 25 0 12.5 12.5 0 1 1-25 0ZM597.5 312.5m-12.5 0a12.5 12.5 0 1 1 25 0 12.5 12.5 0 1 1-25 0ZM609.5 283.5m-12.5 0a12.5 12.5 0 1 1 25 0 12.5 12.5 0 1 1-25 0ZM608.5 253.5m-12.5 0a12.5 12.5 0 1 1 25 0 12.5 12.5 0 1 1-25 0ZM608.5 221.5m-12.5 0a12.5 12.5 0 1 1 25 0 12.5 12.5 0 1 1-25 0ZM603.5 189.5m-12.5 0a12.5 12.5 0 1 1 25 0 12.5 12.5 0 1 1-25 0ZM577.5 161.5m-12.5 0a12.5 12.5 0 1 1 25 0 12.5 12.5 0 1 1-25 0ZM551.5 187.5m-12.5 0a12.5 12.5 0 1 1 25 0 12.5 12.5 0 1 1-25 0ZM514.5 174.5m-12.5 0a12.5 12.5 0 1 1 25 0 12.5 12.5 0 1 1-25 0ZM540.5 153.5m-12.5 0a12.5 12.5 0 1 1 25 0 12.5 12.5 0 1 1-25 0ZM502.5 144.5m-12.5 0a12.5 12.5 0 1 1 25 0 12.5 12.5 0 1 1-25 0ZM477.5 175.5m-12.5 0a12.5 12.5 0 1 1 25 0 12.5 12.5 0 1 1-25 0ZM443.5 173.5m-12.5 0a12.5 12.5 0 1 1 25 0 12.5 12.5 0 1 1-25 0ZM493.5 202.5m-12.5 0a12.5 12.5 0 1 1 25 0 12.5 12.5 0 1 1-25 0ZM526.5 208.5m-12.5 0a12.5 12.5 0 1 1 25 0 12.5 12.5 0 1 1-25 0ZM557.5 219.5m-12.5 0a12.5 12.5 0 1 1 25 0 12.5 12.5 0 1 1-25 0ZM578.5 198.5m-12.5 0a12.5 12.5 0 1 1 25 0 12.5 12.5 0 1 1-25 0ZM459.5 203.5m-12.5 0a12.5 12.5 0 1 1 25 0 12.5 12.5 0 1 1-25 0ZM483.5 231.5m-12.5 0a12.5 12.5 0 1 1 25 0 12.5 12.5 0 1 1-25 0ZM514.5 237.5m-12.5 0a12.5 12.5 0 1 1 25 0 12.5 12.5 0 1 1-25 0ZM546.5 249.5m-12.5 0a12.5 12.5 0 1 1 25 0 12.5 12.5 0 1 1-25 0ZM580.5 236.5m-12.5 0a12.5 12.5 0 1 1 25 0 12.5 12.5 0 1 1-25 0ZM576.5 266.5m-12.5 0a12.5 12.5 0 1 1 25 0 12.5 12.5 0 1 1-25 0ZM570.5 298.5m-12.5 0a12.5 12.5 0 1 1 25 0 12.5 12.5 0 1 1-25 0ZM538.5 284.5m-12.5 0a12.5 12.5 0 1 1 25 0 12.5 12.5 0 1 1-25 0ZM510.5 269.5m-12.5 0a12.5 12.5 0 1 1 25 0 12.5 12.5 0 1 1-25 0ZM475.5 260.5m-12.5 0a12.5 12.5 0 1 1 25 0 12.5 12.5 0 1 1-25 0ZM450.5 238.5m-12.5 0a12.5 12.5 0 1 1 25 0 12.5 12.5 0 1 1-25 0ZM426.5 216.5m-12.5 0a12.5 12.5 0 1 1 25 0 12.5 12.5 0 1 1-25 0ZM413.5 187.5m-12.5 0a12.5 12.5 0 1 1 25 0 12.5 12.5 0 1 1-25 0ZM394.5 216.5m-12.5 0a12.5 12.5 0 1 1 25 0 12.5 12.5 0 1 1-25 0ZM417.5 246.5m-12.5 0a12.5 12.5 0 1 1 25 0 12.5 12.5 0 1 1-25 0ZM441.5 272.5m-12.5 0a12.5 12.5 0 1 1 25 0 12.5 12.5 0 1 1-25 0ZM482.5 291.5m-12.5 0a12.5 12.5 0 1 1 25 0 12.5 12.5 0 1 1-25 0ZM512.5 303.5m-12.5 0a12.5 12.5 0 1 1 25 0 12.5 12.5 0 1 1-25 0ZM542.5 316.5m-12.5 0a12.5 12.5 0 1 1 25 0 12.5 12.5 0 1 1-25 0ZM554.5 344.5m-12.5 0a12.5 12.5 0 1 1 25 0 12.5 12.5 0 1 1-25 0ZM516.5 339.5m-12.5 0a12.5 12.5 0 1 1 25 0 12.5 12.5 0 1 1-25 0ZM482.5 325.5m-12.5 0a12.5 12.5 0 1 1 25 0 12.5 12.5 0 1 1-25 0ZM451.5 304.5m-12.5 0a12.5 12.5 0 1 1 25 0 12.5 12.5 0 1 1-25 0ZM408.5 288.5m-12.5 0a12.5 12.5 0 1 1 25 0 12.5 12.5 0 1 1-25 0ZM390.5 259.5m-12.5 0a12.5 12.5 0 1 1 25 0 12.5 12.5 0 1 1-25 0ZM425.5 322.5m-12.5 0a12.5 12.5 0 1 1 25 0 12.5 12.5 0 1 1-25 0ZM455.5 343.5m-12.5 0a12.5 12.5 0 1 1 25 0 12.5 12.5 0 1 1-25 0ZM487.5 359.5m-12.5 0a12.5 12.5 0 1 1 25 0 12.5 12.5 0 1 1-25 0ZM523.5 368.5m-12.5 0a12.5 12.5 0 1 1 25 0 12.5 12.5 0 1 1-25 0ZM548.5 381.5m-12.5 0a12.5 12.5 0 1 1 25 0 12.5 12.5 0 1 1-25 0ZM517.5 405.5m-12.5 0a12.5 12.5 0 1 1 25 0 12.5 12.5 0 1 1-25 0ZM490.5 390.5m-12.5 0a12.5 12.5 0 1 1 25 0 12.5 12.5 0 1 1-25 0ZM460.5 374.5m-12.5 0a12.5 12.5 0 1 1 25 0 12.5 12.5 0 1 1-25 0ZM464.5 409.5m-12.5 0a12.5 12.5 0 1 1 25 0 12.5 12.5 0 1 1-25 0ZM496.5 423.5m-12.5 0a12.5 12.5 0 1 1 25 0 12.5 12.5 0 1 1-25 0ZM522.5 441.5m-12.5 0a12.5 12.5 0 1 1 25 0 12.5 12.5 0 1 1-25 0ZM520.5 476.5m-12.5 0a12.5 12.5 0 1 1 25 0 12.5 12.5 0 1 1-25 0ZM491.5 459.5m-12.5 0a12.5 12.5 0 1 1 25 0 12.5 12.5 0 1 1-25 0ZM469.5 439.5m-12.5 0a12.5 12.5 0 1 1 25 0 12.5 12.5 0 1 1-25 0ZM471.5 478.5m-12.5 0a12.5 12.5 0 1 1 25 0 12.5 12.5 0 1 1-25 0ZM499.5 496.5m-12.5 0a12.5 12.5 0 1 1 25 0 12.5 12.5 0 1 1-25 0ZM496.5 531.5m-12.5 0a12.5 12.5 0 1 1 25 0 12.5 12.5 0 1 1-25 0Z"  horiz-adv-x="1024" />

    
    <glyph glyph-name="shiliu" unicode="&#58910;" d="M552.81 671.3c-1 4.91-1.34 11.93 0.33 21.78 1.31 7.77 16 38 16 40.92-5.86 0-26.37-29.3-26.37-29.3s2.93 17.58 0 23.44c-2.93 0-17.58-23.44-17.58-23.44s-8.79 26.37-11.72 26.37c-2.92-2.93-8.78-26.37-8.78-26.37s-20.51 26.37-26.37 26.37c-2.93-2.93 12.81-26.37 12.81-26.37s-30.39 26.37-36.25 26.37c0-5.86 15.5-29.88 15.08-37.08-0.5-8.58-3.23-17.42-5.58-23.64-154.11-23-272.31-155.9-272.31-316.41C192.06 177.24 335.3 34 512 34s319.94 143.24 319.94 319.94c0 162.87-121.7 297.32-279.13 317.36zM512 353.94m-302.57 0a302.57 302.57 0 1 1 605.14 0 302.57 302.57 0 1 1-605.14 0ZM503.77 381.36c0-157-54.16-131-97.81-126.14-106 11.88-178.25-58.29-178.25 98.72S355 638.23 512 638.23s-8.23-99.86-8.23-256.87zM797.2 353.94a284.53 284.53 0 0 0-97-214.32c-50.22-44.13-194.6 58.9-169 214.32 27.42 166.37 92.1 262.7 96 261 100.14-44.3 170-144.49 170-261zM616.22 87.4A285.33 285.33 0 0 0 512 67.82c-105.83 0-198.24 57.46-247.74 142.89-13.08 22.58 132.17 39.83 232.2 1.54C583 179.13 626.41 91.39 616.22 87.4zM418.19 557.46c-0.34-11.56-14-17.95-21.37-19.78-18.28-4.57-26.14-11.95-26.14 15.07a48.92 48.92 0 0 0 48.92 48.91c27.02 0-0.6-17.19-1.41-44.2zM490.4 575.75c-17.69-20.43-9.32-22.55-16.83-21.71-18.25 2-30.67-10-30.67 17a48.92 48.92 0 0 0 48.92 48.92c27.01-0.01 14.7-25.61-1.42-44.21zM540 554.66c-14.79-17.07-7.8-18.85-14.07-18.15-15.26 1.71-25.64-8.38-25.64 14.2a40.89 40.89 0 0 0 40.89 40.9c22.62 0 12.32-21.4-1.18-36.95zM358.77 510.43c0 27-9.32 22.55-16.83 21.71-18.25-2.05-30.67 10-30.67-17s-11.34-60.66 48.92-48.92c26.51 5.17-1.42 17.19-1.42 44.21zM425.88 501.11c-9.16 25.42-16.42 18.06-23.2 14.72-16.47-8.11-32.25-1-23.09-26.38s9.89-60.91 62.6-29.44c23.2 13.85-7.19 15.69-16.31 41.1zM482.13 512.53c17.45-14.35 19.05-7.32 18.5-13.61-1.32-15.29 9-25.42-13.55-26a40.89 40.89 0 0 0-41.91 39.84c-0.58 22.59 21.07 12.84 36.96-0.23zM365.17 374.64c-0.34-11.56-14-17.95-21.37-19.79-18.28-4.57-26.14-12-26.14 15.07a48.92 48.92 0 0 0 48.92 48.92c27.02 0-0.58-17.19-1.41-44.2zM437.38 392.92c-17.68-20.42-9.32-22.55-16.83-21.7-18.24 2-30.67-10-30.67 17a48.92 48.92 0 0 0 48.92 48.92c27.02-0.02 14.7-25.61-1.42-44.22zM487 371.84c-14.79-17.08-7.79-18.85-14.07-18.15-15.26 1.71-25.64-8.38-25.64 14.2a40.9 40.9 0 0 0 40.89 40.9c22.6 0 12.3-21.4-1.18-36.95zM311.24 322.12c0 27-9.33 22.55-16.84 21.71-18.24-2.05-30.67 10-30.67-17s-11.34-60.66 48.92-48.92c26.52 5.18-1.41 17.2-1.41 44.21zM378.34 312.81c-9.16 25.41-16.41 18.05-23.19 14.71-16.47-8.11-32.26-1-23.1-26.38s9.9-60.91 62.61-29.44c23.2 13.85-7.16 15.69-16.32 41.11zM434.6 324.22c17.44-14.35 19-7.31 18.5-13.61-1.33-15.29 9-25.42-13.55-26a40.9 40.9 0 0 0-41.92 39.85c-0.57 22.54 21.08 12.83 36.97-0.24zM308 411.68c19.48 18.72 9.8 22.35 4 27.18-14.11 11.74-14 29.07-33.5 10.35s-51.59-33.85-1.38-69.17c22.09-15.55 11.41 12.96 30.88 31.64zM612.14 139.73c-9.35 6.8-22.79-0.12-28.72-4.8-14.8-11.66-25.45-13.36-4.07-29.89A48.91 48.91 0 0 1 648 113.8c16.5 21.37-14 10.03-35.86 25.93zM670.78 185.66c-27-1.49-23.53 6.43-27.46 0-9.55-15.68-26.7-18.13-5.33-34.66a48.91 48.91 0 0 1 68.62 8.77c16.53 21.34-11.25 27.23-35.83 25.89zM684.47 237.82c-22.55-1.25-19.68 5.37-23 0-8-13.11-22.32-15.15-4.45-29a40.89 40.89 0 0 1 57.37 7.33C728.24 234 705 239 684.47 237.82zM538.58 121.5c21.38-16.53 12.14-21.17 6.88-26.59-12.78-13.18-10.84-30.4-32.21-13.87s-54.91 28.14-8.76 68.63c20.31 17.81 12.72-11.67 34.09-28.17zM572.27 180.29c14.51-22.8 4.24-24-2.55-27.35-16.49-8.07-20.49-24.93-35-2.13s-42.13 45.09 15 67.53c25.17 9.87 8.05-15.26 22.55-38.05zM615.72 217.8c-0.68 22.58 5.87 19.54 0.55 23-12.9 8.31-14.58 22.69-28.85 5.18a40.89 40.89 0 0 1 5.88-57.53c17.51-14.31 23.04 8.79 22.42 29.35zM435.09 209.64c-9.35 6.81-22.79-0.11-28.72-4.79-14.8-11.67-25.45-13.37-4.08-29.9a48.93 48.93 0 0 1 68.63 8.77c16.53 21.37-13.98 10.03-35.83 25.92zM493.73 255.58c-27-1.5-23.53 6.42-27.46 0-9.55-15.69-26.7-18.13-5.33-34.66a48.91 48.91 0 0 1 68.62 8.77c16.53 21.31-11.25 27.25-35.83 25.89zM507.42 307.73c-22.56-1.25-19.68 5.37-23 0-8-13.11-22.32-15.16-4.45-29a40.9 40.9 0 0 1 57.37 7.32c13.85 17.88-9.34 22.82-29.92 21.68zM360.55 199.11c21.37-16.53 12.14-21.16 6.87-26.59-12.78-13.18-10.83-30.4-32.2-13.87s-54.92 28.14-8.76 68.63c20.31 17.81 12.72-11.64 34.09-28.17zM394.24 257.9c14.5-22.8 4.24-24-2.55-27.35-16.49-8.07-20.5-24.93-35-2.13s-42.12 45.09 15 67.53c25.17 9.88 8.05-15.26 22.55-38.05zM437.69 295.41c-0.68 22.58 5.86 19.54 0.55 23-12.9 8.31-14.58 22.69-28.85 5.18a40.89 40.89 0 0 1 5.87-57.59c17.51-14.25 23.05 8.85 22.43 29.41zM429.42 141.77c26.73 4 23.67-5.92 23.94-13.47 0.65-18.35 14.42-28.87-12.31-32.83s-58.34-20.11-55.56 41.22c1.22 26.99 17.2 1.12 43.93 5.08zM700.47 474.37C695.59 463.88 705 452 710.7 447.1c14.3-12.27 18-22.39 30.12 1.77A48.92 48.92 0 0 1 719 514.52c-24.16 12.1-7.15-15.65-18.53-40.15zM644.09 523.06c6.66-26.19-1.77-24.34 5.32-26.95 17.23-6.35 22.94-22.71 35 1.45a48.93 48.93 0 0 1-21.83 65.65c-24.12 12.1-24.58-16.3-18.49-40.15zM590.27 526.43c5.58-21.89-1.47-20.35 4.45-22.53 14.41-5.3 19.18-19 29.29 1.21A40.88 40.88 0 0 1 605.76 560c-20.19 10.11-20.57-13.63-15.49-33.57zM732.52 405.7c12.1 24.16 18.44 16 24.77 11.87 15.4-10 31.92-4.77 19.82-28.93s-17-59.31-65.65-21.82c-21.4 16.49 8.96 14.72 21.06 38.88zM668.35 427.43c19.57 18.62 22.76 8.79 27.33 2.77 11.09-14.63 28.41-15.31 8.83-33.93s-36.12-50-69.16 1.72c-14.53 22.77 13.43 10.81 33 29.44zM623.16 462.83c-22-5-20.3 2-22.63-3.88-5.66-14.27-19.46-18.69 0.47-29.31a40.9 40.9 0 0 1 55.33 16.85c10.67 19.93-13.1 20.91-33.17 16.34zM666 287.16c-4.88-10.49 4.5-22.34 10.24-27.26 14.29-12.28 18-22.39 30.11 1.76a48.91 48.91 0 0 1-21.82 65.65c-24.17 12.1-7.16-15.65-18.53-40.15zM609.61 335.85c6.66-26.18-1.77-24.34 5.32-27 17.23-6.34 22.94-22.7 35 1.45a48.93 48.93 0 0 1-21.79 65.7c-24.14 12.1-24.61-16.3-18.53-40.15zM555.79 339.22c5.58-21.89-1.47-20.34 4.46-22.53 14.4-5.3 19.17-19 29.28 1.22a40.89 40.89 0 0 1-18.25 54.88c-20.19 10.11-20.57-13.63-15.49-33.57zM690.68 216c12.11 24.15 18.44 16 24.77 11.87 15.4-10 31.92-4.77 19.82-28.93s-17-59.31-65.65-21.83c-21.39 16.55 8.96 14.78 21.06 38.89zM626.51 237.77c19.57 18.63 22.76 8.79 27.33 2.77 11.1-14.62 28.41-15.3 8.84-33.93s-36.13-50-69.17 1.72c-14.51 22.77 13.43 10.82 33 29.44zM581.32 273.17c-22-5-20.3 2-22.63-3.88-5.69-14.29-19.46-18.68 0.47-29.29a40.91 40.91 0 0 1 55.33 16.86c10.62 19.91-13.1 20.89-33.17 16.31zM733.68 294.68c-9 25.46 1.24 24.36 8.6 26.08 17.88 4.18 25.55 19.71 34.59-5.75s31-53.37-29.74-62.46c-26.72-4-4.41 16.67-13.45 42.13z"  horiz-adv-x="1024" />

    
    <glyph glyph-name="putao" unicode="&#58911;" d="M583.76 456.92l0.995 5.093 15.38-3.003-0.995-5.094zM635.751558 409.007767a39.66 48.48 78.95 1 1 15.202912 77.849431 39.66 48.48 78.95 1 1-15.202912-77.849431ZM535.723 529.614l0.994 5.094 15.38-3.004-0.995-5.094zM587.723694 481.701173a39.66 48.48 78.95 1 1 15.202912 77.849431 39.66 48.48 78.95 1 1-15.202912-77.849431ZM413.652 593.589l2.02 4.78 19.132-8.085-2.02-4.78zM467.731792 516.491984a52.57 64.26 67.09 1 1 40.929395 96.846292 52.57 64.26 67.09 1 1-40.929395-96.846292ZM646.775 331.332l0.73 5.138 14.455-2.055-0.73-5.138zM697.40933 289.533114a36.96 45.17 81.92 1 1 10.389873 73.18618 36.96 45.17 81.92 1 1-10.389873-73.18618ZM673.241 228.955l0.73 5.138 14.673-2.083-0.73-5.138zM724.676975 186.442871a37.51 45.84 81.92 1 1 10.544484 74.27526 37.51 45.84 81.92 1 1-10.544484-74.27526ZM573.706 109.253l0.727 5.138 18.166-2.57-0.727-5.137zM637.7239 55.581597a46.45 56.77 81.92 1 1 13.057619 91.977762 46.45 56.77 81.92 1 1-13.057619-91.977762ZM345.887 448.48l13.645 17.296 4.075-3.215-13.645-17.296zM266.907285 344.201123a68.15 55.76 51.73 1 1 84.419863 107.009237 68.15 55.76 51.73 1 1-84.419863-107.009237ZM399.911 352.555l8.577 18.916 4.727-2.143-8.577-18.916zM351.380768 239.058528a64.26 52.57 65.61 1 1 53.071753 117.050329 64.26 52.57 65.61 1 1-53.071753-117.050329ZM455.866 273.662l7.252 15.993 4.726-2.143-7.25-15.993zM415.192854 177.490432a54.34 44.46 65.61 1 1 44.878915 98.980935 54.34 44.46 65.61 1 1-44.878915-98.980935ZM473.909 168.242l8.577 18.917 4.727-2.143-8.577-18.917zM425.372995 54.717072a64.26 52.57 65.61 1 1 53.071753 117.050329 64.26 52.57 65.61 1 1-53.071753-117.050329ZM540.33 95.94l-18.85 13.8c88.64 121.15 19.37 215-47.63 305.81-17 23-33 44.75-46.4 66.77-28.38 46.74-40.23 105.1-34.26 168.76 4.48 47.78 17.22 81.51 17.76 82.92l21.83-8.34c-0.27-0.72-12.31-32.95-16.39-77.43-3.73-40.69-1.37-100.4 31-153.79 12.82-21.12 28.56-42.44 45.22-65 34.5-46.75 70.18-95.09 86-149.61 18.39-63.4 5.88-123.54-38.28-183.89zM432.78 725.66l-10.92 4.17 10.92-4.17zM385.426 563.928l12.878 16.408 4.1-3.218-12.878-16.408zM309.230147 463.935903a64.26 52.57 51.73 1 1 79.601181 100.901152 64.26 52.57 51.73 1 1-79.601181-100.901152ZM418.083 473.277l8.577 18.917 4.727-2.144-8.577-18.916zM369.55773 359.791727a64.26 52.57 65.61 1 1 53.071753 117.050328 64.26 52.57 65.61 1 1-53.071753-117.050328ZM480.523 385.293l7.251 15.993 4.727-2.143-7.251-15.993zM439.859169 289.130635a54.34 44.46 65.61 1 1 44.878915 98.980935 54.34 44.46 65.61 1 1-44.878915-98.980935ZM456.386 468.933l0.73 5.138 19.177-2.726-0.73-5.138zM523.496052 412.569697a49.03 59.93 81.92 1 1 13.782886 97.086536 49.03 59.93 81.92 1 1-13.782886-97.086536ZM522.949 377.534l0.73 5.138 20.564-2.923-0.73-5.138zM594.899269 316.905936a52.57 64.26 81.92 1 1 14.77802 104.096252 52.57 64.26 81.92 1 1-14.77802-104.096252ZM575.023 276.612l0.726 5.139 18.167-2.57-0.727-5.138zM639.019156 223.027062a46.45 56.77 81.92 1 1 13.057619 91.977762 46.45 56.77 81.92 1 1-13.057619-91.977762ZM533.614 294.152l8.576 18.916 4.727-2.143-8.577-18.916zM485.088399 180.636688a64.26 52.57 65.61 1 1 53.071753 117.050329 64.26 52.57 65.61 1 1-53.071753-117.050329ZM554.377 151.374l8.577 18.916 4.727-2.143-8.577-18.917zM505.851964 37.838672a64.26 52.57 65.61 1 1 53.071753 117.050329 64.26 52.57 65.61 1 1-53.071753-117.050329ZM573.58 185.403l0.731 5.138 20.563-2.923-0.73-5.138zM645.528128 124.809251a52.57 64.26 81.92 1 1 14.77802 104.096252 52.57 64.26 81.92 1 1-14.77802-104.096252Z"  horiz-adv-x="1024" />

    
    <glyph glyph-name="ximei" unicode="&#58912;" d="M804.57 368.14C811.72 221 734 67.75 575.73 45.37c-15.05-2.13-33.5 22.32-49.13 22.32-22.51 0-41.42-23.27-62.64-18.92-148.55 30.4-222.49 187.54-222.49 294.85 0 180 187.16 344.78 288.19 350.52 99.62 5.67 266.81-159.54 274.91-326zM562.59 34c-10.83 0-20.85 6.94-29.79 13.14-6 4.15-13.44 9.31-17.45 9.31-7.74 0-15.89-4.24-24.53-8.74-11.77-6.13-25.12-13.08-40.36-10-88.92 18.2-143.76 77.17-174.1 123.44C240.43 216 219 284.17 219 343.62c0 44.18 10.73 89.49 31.89 134.68 18.5 39.54 45.24 78.81 77.3 113.57 60.75 65.85 135.18 110.4 189.6 113.5 42.38 2.4 96.39-22.91 148.12-69.45 63.53-57.17 133.31-157.39 138.65-267.23 3.81-78.37-15.43-154.66-54.17-214.81C707 86.53 643.25 45.16 566.05 34.24a25.37 25.37 0 0 0-3.46-0.24z m-47.24 44.93c11 0 20.81-6.76 30.25-13.31 5.52-3.82 13.88-9.61 17.3-9.12 70.54 10 128.83 47.86 168.57 109.55 36.22 56.25 54.2 127.82 50.62 201.55-2.16 44.4-16.64 92.32-41.88 138.4a434.11 434.11 0 0 1-89.36 113.2c-46.61 41.94-95.85 65.8-131.8 63.72-48.16-2.74-118.23-45.46-174.36-106.3-30.52-33.08-55.92-70.38-73.46-107.85-19.75-42.19-29.76-84.29-29.76-125.15 0-55.24 20.07-118.83 53.69-170.1 28-42.7 78.46-97.09 159.8-113.74 7.43-1.51 15.8 2.83 25.48 7.88 10.16 5.28 21.67 11.27 34.91 11.27zM580 361.86c0-54.76-61.61-171.53-61.61-171.53S456.8 307.1 456.8 361.86 518.41 546 518.41 546 580 416.61 580 361.86zM568.49 363c0-44.5-50.08-119-50.08-119s-50.07 74.48-50.07 119 50.07 129.21 50.07 129.21 50.08-84.67 50.08-129.21zM519.05 682.92a87.3 87.3 0 0 0 16.74-0.77v42.14a9.71 9.71 0 1 1-19.42 0v-41.56c0.9 0.07 1.79 0.14 2.68 0.19z"  horiz-adv-x="1024" />

    
    <glyph glyph-name="yezi" unicode="&#58913;" d="M512 384m-350 0a350 350 0 1 1 700 0 350 350 0 1 1-700 0ZM817 384c0-168.45-136.55-305-305-305S207 215.55 207 384s136.55 305 305 305a303.64 303.64 0 0 0 185.24-62.68C707.78 618.25 676 569 681 563c3.2-3.84 58.62 24.22 64.41 17.34A303.78 303.78 0 0 0 817 384zM512 63a321 321 0 0 0 0 642 318 318 0 0 0 195-66c8.46-6.47 10.5-17.37 6.09-32.41a178.34 178.34 0 0 0-7.19-19.1c6.85 2.6 14 5.22 20.21 7.06 7.35 2.17 22.63 6.69 31.57-3.92A321 321 0 0 0 512 63z m0 610a289 289 0 1 1 225.63-108.39c-7-1.87-19-6.48-26.13-9.21-6.43-2.47-12.5-4.8-17.37-6.37-5.71-1.84-17.58-5.68-25.42 3.73-8.44 10.12-3.07 22.47 5.07 41.15 2.74 6.3 7.41 17 9 23.23A286.25 286.25 0 0 1 512 673zM711.5 555.4c-6.43-2.47-12.5-4.8-17.37-6.37-5.71-1.84-17.58-5.68-25.42 3.73-8.44 10.12-3.07 22.47 5.07 41.15 2.74 6.3 7.41 17 9 23.23a289 289 0 0 1-375.13-437.49q7.37-7.38 15.18-14.14C335 235 341.33 370.89 476 427c156 65 286-31 324.33-62.64 0.43 6.51 0.67 13.06 0.67 19.64a289.23 289.23 0 0 1-63.37 180.61c-7.01-1.87-19.01-6.48-26.13-9.21z"  horiz-adv-x="1024" />

    
    <glyph glyph-name="xiangjiao" unicode="&#58914;" d="M809.4 525.85c-8.16 6.34-19.94 18.13-33.54 39.89s-10 43.52-9.07 55.3c-6.35 5.44-9.07 18.13-11.79 23.57a106.09 106.09 0 0 1-8.16 12.7l4.54 7.25-11.79 14.51s-6.35-11.79-10-10.88-8.16-2.72-25.39-4.54S674.31 641 674.31 641l8.16-12.69s-3.62-3.63-4.53-11.79c1.81-29.92-8.16-63.47-9.07-66.19s-2.72-9.06-22.66-26.29C604.5 476 524.72 389.85 454 337.27s-152.31-58-188.58-61.66-71.62-11.78-84.32-19.94-15.41-10-15.41-10l4.53-3.63a35.35 35.35 0 0 0-6.34-8.16c-4.54-4.53 0-9.07 4.53-13.6s4.53-7.25 2.72-16.32c37.17-54.4 107-63.46 160.48-60.74s107.88 20.88 107.88 20.88 0.91-5.44 5.44-15.41c82.51-78.88 159.57-62.56 223.94-46.24s102.45 61.65 141.44 116S861.08 340 862 403.45s-44.44 116.05-52.6 122.4z m-70.72-52.59c-1.81-9.07-5.44-58.93-19-105.17s-50.77-86.13-81.59-107-73.44-29-73.44-29 53.45 43.52 85.18 78.91c25.71 28.65 50.78 66.19 65.28 102.45s8.16 77.07-4.53 106.08 4.53 59.84 9.06 72.53c11.79-1.81 29.92-54.4 30.83-66.18s-9.97-43.55-11.79-52.62zM175.66 221.22c-1.81 7.25-7.25 9.06-6.8 15s6.8 3.17 7.71 8.61c0.4 2.41-0.62 4.81-1.88 6.75-7.24-4.67-9-5.84-9-5.84l4.53-3.63a35.35 35.35 0 0 0-6.34-8.16c-4.54-4.53 0-9.07 4.53-13.6s4.53-7.25 2.72-16.32c0-0.03 6.35 9.97 4.53 17.19zM449.47 149.59c4.53 0.91 5.44 11.79 4.53 23.57s-2.72 20-8.16 20.86-10-12.7-10-12.7 1.81-3.62 1.81-12.69a21 21 0 0 1 0.63-4.92l1.18 0.39a55.6 55.6 0 0 1 3-9.67c2.3-3.21 4.94-5.25 7.01-4.84zM755 644.61a106.09 106.09 0 0 1-8.16 12.7l1.84 2.93-7.28 0.69-8.16-26.29s2.76-23.57 6.35-22.64c2.44 0.61 16.75 6.54 25.88 10.37-5.42 5.93-7.94 17.2-10.47 22.24zM698.79 612c1.82-4.54 10.88-10 20.85-7.26s23.58 8.16 23.58 8.16l4.53 39.89 1.23 1.57c-1.24 1.77-2.14 3-2.14 3l4.54 7.25-11.79 14.51s-6.35-11.79-10-10.88-8.16-2.72-25.39-4.54-29.89-22.7-29.89-22.7l4-6.24a64.32 64.32 0 0 1 10.5-2.83c7.26-0.93 8.19-15.42 9.98-19.93zM575.19 287.8c29.47 26.85 56.43 59.28 80.14 96.4 39.64 62.09 39.44 111.09 39.35 132 0 3.88 0 7.89 0.29 9.1L679 530c-0.23-0.83-0.44-1.67-0.67-2.58-2.46-9.8-6.58-26.21-50.35-94.75-23.19-36.32-49.53-68-78.29-94.22-27.18-24.76-55.65-43.49-82.34-54.16-83.75-33.5-158.75-43.3-206.92-45.62-52.24-2.52-85.07 3-85.4 3l-1.8-10.67c0.4-0.07 3.42-0.58 8.79-1.2l-3.32-8.64c1.48-0.58 37.1-14.11 93.43-19.7a472.3 472.3 0 0 1 46.55-2.29c47.94 0 107.86 7.23 170.89 32.44 27.88 11.12 57.48 30.56 85.62 56.19zM273.6 212.22c-41.26 4.06-71.6 12.69-84.39 16.78 10.21-1 25-1.9 43.73-1.9 8.45 0 17.71 0.2 27.68 0.67 49.08 2.34 125.5 12.28 210.81 46.41 27.88 11.15 57.49 30.59 85.62 56.22 29.48 26.85 56.44 59.28 80.14 96.4 28.94 45.32 41 68.63 46.6 82.27-0.24-23.61-3.45-65.5-37.63-119-23.19-36.32-49.54-68-78.3-94.22-27.18-24.76-55.65-43.49-82.33-54.16-83.44-33.39-161.31-34.45-211.93-29.47zM797.14 515.8c-1.5 3.74-3 7.61-3.18 8.81l-13.3-1.36c0.09-0.81 0.2-1.64 0.31-2.53 1.21-9.65 3.25-25.8-10.12-101.18-7.08-39.92-18.27-76.58-33.28-109-14.15-30.56-31.34-56-49.7-73.65-25.25-24.23-52-43-79.58-55.79a216.15 216.15 0 0 0-67-19.18c-30.62-3.43-55 1.47-63.7 4.55l-1.83-5.12-1.84-5.12a76.89 76.89 0 0 1 7.67-2.18l-1.3-2.67-2.37-4.9c1.35-0.65 33.5-16 80.19-17.92 3.17-0.13 6.32-0.2 9.47-0.2a217.13 217.13 0 0 1 70 11.44c31.61 10.72 61 29 87.41 54.32 19.33 18.55 37.33 45.15 52 76.93 15.39 33.24 26.87 70.8 34.11 111.64 12.12 67.96-6.16 113.61-13.96 133.11z m3.32-131.18c-7.08-39.92-18.27-76.58-33.28-109-14.15-30.56-31.34-56-49.7-73.65-25.16-24.14-53.12-41.56-83.1-51.78A207.37 207.37 0 0 0 559 139.44a224.79 224.79 0 0 0-64.67 12.23 179.5 179.5 0 0 1 25.74-1.8 201.41 201.41 0 0 1 21.77 1.19 227 227 0 0 1 70.6 20c28.79 13.31 56.7 32.83 82.95 58 19.33 18.55 37.33 45.15 52.05 76.93 15.39 33.24 26.87 70.8 34.11 111.64s10 64.88 10.87 79.95c8.15-23.13 17.32-60.58 8.04-112.96z"  horiz-adv-x="1024" />

    
    <glyph glyph-name="yangtao" unicode="&#58915;" d="M179.57 363s-20.74 9.44-4.48 16.24S196 393 223.89 402 328.46 449.64 347 451.79s25.53 9 25.6 16 5.31 76.32 47.48 133.8c18.78 29.92 10.12 97.11 12.5 104s4.73 11.53 13.86-2.44 20.5-37.21 27.21-62.73 27.38-44.22 45.73-62.9 57.32-60.68 64.09-79.26c30-4.89 64.8-0.58 101.78-5.54s64.76-5.2 76.35-3 11.59 2.21 32.46 6.65 51 8.8 57.88 1.8 4.5-13.93-25.71-27.54-62.79-34.16-79.18-54.84-42.21-62.11-63.18-78.12-25.66-22.89-18.87-39.15 15.7-55.68 29.4-76.63 41.07-65.17 40.8-95.26-2.78-53.2-12-50.81c-4.51 13.93-20.23 67.3-54.88 74.55s-99.51 0.89-147.84 31.41C501.9 175 494.91 170.44 478.61 159s-32.54-15.91-53.43-22.67-62.71-24.89-79.38-78c-7-4.57-11.62-4.53-11.47 11.67s15 120.21 15.14 141 19 53.06-15.58 69.57-62 51.47-82.75 63.23-71.57 19.2-71.57 19.2zM339.46 48.89a10.28 10.28 0 0 0-5 1.27c-6.3 3.44-7.07 12-7 19.94s3.23 33.85 6.9 63.8c3.82 31.2 8.15 66.56 8.24 77.24 0.05 5.76 1.28 11.84 2.57 18.28 4.37 21.7 5.59 35.57-14.24 45-21.38 10.21-39.6 26.68-55.68 41.21-10.58 9.56-19.71 17.82-27.5 22.24-19.38 11-68.68 18.26-69.18 18.33l-1 0.14-0.89 0.4c-4.48 2-14.87 7.73-14.73 16.56 0.06 3.62 1.91 8.7 10.44 12.26A122.06 122.06 0 0 1 187 393a159.88 159.88 0 0 0 34.83 15.47c11.54 3.73 32.8 13.19 53.37 22.33 35.87 16 60.2 26.51 71.05 27.77 13.45 1.56 19.5 5.75 19.53 9.22 0 0.72 2.71 74.81 48.66 137.59 12.56 20.35 11.56 61.5 11 83.62-0.28 11.74-0.33 15.95 0.65 18.8 1.24 3.64 3.56 10.39 10.06 11.2s11.61-5.33 16-12.11a231.48 231.48 0 0 0 28.1-64.74c5.58-21.19 22.27-38 38.42-54.21q2.81-2.82 5.57-5.62c9-9.17 52.36-54 64-77.84 13.49-1.84 28.14-2 43.56-2.11 17.42-0.16 35.43-0.32 54.35-2.85 36.57-4.91 63.59-5.07 74.15-3.06 11.51 2.2 11.51 2.2 32.31 6.62 53 11.29 61.43 2.72 64.2-0.1 4.15-4.23 5.82-8.73 4.94-13.37-1.54-8.25-10.72-15.32-32.72-25.24-33.34-15-62.7-35.28-76.62-52.84-4.63-5.85-10.16-13.56-16-21.73-15.31-21.37-32.65-45.58-48.39-57.59-20.56-15.7-21.47-19.64-16.69-31.07 2.35-5.62 4.81-13.48 7.67-22.58 5.55-17.67 12.45-39.66 21.14-53 28-42.86 42.13-76.19 41.93-99.07-0.36-39.44-4.53-50.67-10.69-55.39a11.34 11.34 0 0 0-9.92-2l-3.65 1-1.75 5.44c-4.9 15.32-19.8 61.94-49.17 68.09-9.74 2-22 3-36.3 4-33.9 2.53-75.87 5.66-110.87 26.5-15.52-5.87-22.12-10.23-37.18-20.79-15.49-10.86-31-15.82-49-21.57l-6.24-2c-37.76-12.22-63.68-37.64-75-73.51l-0.73-2.34-2.06-1.35c-1.74-1.11-5.66-3.68-10.05-3.68zM181.61 369.66c7.69-1.17 52.77-8.39 72.92-19.81 9.1-5.17 18.76-13.9 29.94-24 15.38-13.9 32.81-29.66 52.38-39 30.91-14.76 25.64-41 21.79-60.13-1.17-5.78-2.26-11.24-2.3-15.69-0.11-11.46-4.3-45.69-8.35-78.79-3.31-27.06-6.73-55.05-6.8-62.25 0-1.42 0-2.62 0.07-3.63 13.57 37.17 41.73 63.56 81.81 76.52q3.21 1.05 6.28 2c17.62 5.63 31.54 10.08 45.32 19.74 16.4 11.49 23.83 16.44 43.45 23.6l3.17 1.15 2.85-1.8c32.67-20.63 74.15-23.73 107.48-26.21 14.74-1.1 27.47-2 38.1-4.28C701.2 150.5 718 112 725.78 89.86c1.23 6.24 2.4 17.29 2.57 36.83 0.23 25.06-21.46 63.56-39.69 91.44-9.73 14.87-16.94 37.87-22.74 56.35-2.76 8.78-5.14 16.36-7.25 21.39-8.91 21.33 0 31.23 21 47.28 14.09 10.77 31.54 35.11 45.55 54.67 6 8.31 11.58 16.16 16.42 22.26 15.42 19.47 46 40.72 81.73 56.83 20.68 9.32 24.19 13.82 24.79 15.06a7.54 7.54 0 0 1-1.16 1.42c-2.69 2.21-19.11 3.2-51.55-3.7-20.94-4.46-20.94-4.46-32.6-6.68-14.21-2.71-45-1.56-78.55 2.93-18.07 2.43-35.64 2.58-52.64 2.73-17.38 0.16-33.79 0.31-49.33 2.84l-4 0.65-1.33 3.77c-5.27 14.43-35.21 49-62.55 76.8-1.81 1.85-3.65 3.7-5.5 5.56-17.43 17.52-35.45 35.64-42 60.4-6.65 25.26-18 47.93-26.32 60.72q-0.93 1.43-1.68 2.46c-0.09-2.82 0-7.9 0.14-12.51 0.61-25.32 1.63-67.71-13.27-91.44l-0.28-0.41c-42.87-58.43-46.15-129.13-46.15-129.81 0-5.73-3.24-19.43-31.67-22.72-9.59-1.12-40.12-14.7-67.07-26.68-21.85-9.72-42.49-18.9-54.72-22.85a146.17 146.17 0 0 1-32.21-14.31 132.63 132.63 0 0 0-16.06-8.2c-0.27-0.12-0.51-0.22-0.73-0.33a29.81 29.81 0 0 1 4.68-2.95zM515.33 346.18s81 50.91 104.14 55.54c-18.47-11.57-104.14-57.85-104.14-57.85l60.17-2.32-60.17-2.31 39.34-41.66-46.29 39.34-6.94-39.34v37l-46.28-71.74 32.4 64.8-37-30.09 34.71 34.71-83.31 20.83 81-13.88L466.73 367l25.45-20.83-11.57 76.37 25.46-76.37L520 369.32zM496.46 442.43c4-14.14-1.65-28.13-1.65-28.13s-12.15 8.94-16.16 23.08 1.65 28.13 1.65 28.13 12.16-8.94 16.16-23.08z"  horiz-adv-x="1024" />

    
    <glyph glyph-name="yingtao" unicode="&#58917;" d="M323.47 377.84s42.72 71.2 47 79.79 34.39 70.93 41.91 93.5 26.86 59.11 25.79 87.05 19.34 10.75 19.34 4.3-4.29-25.79-8.59-35.47-19.35-54.8-26.87-68.77-38.69-81.68-45.14-93.5-32.24-63.94-37.07-70.66-16.37 3.76-16.37 3.76zM445.36 701.26a3.65 3.65 0 0 1-0.68-4.67c1.18-1.93 2.18-4.53 1-6.83-2.15-4.3-9.67 3.23-10.74-9.67s5.37-12.89 3.22-19.34-6.45-16.12-3.22-19.35 14-5.37 19.34-3.22 5.37 3.22 7.52 6.45 1.08 8.59 3.23 16.12 2.15 7.52 2.15 16.12-2.15 18.27-6.45 20.42-3.23 0-6.45 0-7.52 5.37-8.6 4.3a3.75 3.75 0 0 0-0.32-0.33zM577.9 310.41s-21.5 41.91-23.65 48.36-24.71 53.73-38.68 112.84-30.09 118.21-35.47 125.73-5.37 29-5.37 29 14 10.74 21.49 2.15 7.52-4.3 8.6-20.42 15.05-86 21.49-103.17S550 388.86 575.75 357.69s30.09-51.58 30.09-51.58zM457.53 680.09s6.45 5.37 11.83 9.67 3.22 0 8.59-5.37 10.75-9.67 12.9-15 2.15-12.89 5.37-12.89 2.15-1.08 3.23-5.37 0-3.23 5.37-5.38 10.75-8.6 5.37-12.89-12.89-12.95-17.19-15.1-19.35-10.75-20.42-5.37a70 70 0 0 1-4.3 14c-2.15 5.37-4.3 3.22-5.37 8.6s-4.3 15-4.3 15-9.67 21.5-1.08 30.1zM733.72 71.83S774.56 74 795 90.1s72 43 66.63 103.17-32.24 142.93-106.39 173C720.84 380.24 695 377 695 377s-54.81 5.38-105.32-35.46S501.27 221 534.91 159.95c69.85-126.81 198.81-88.12 198.81-88.12zM593.39 344.45c-1.22-0.94-2.45-1.89-3.67-2.88A182.22 182.22 0 0 1 568.23 321c0.06-1.13 1.63-1 5.59 1.26 39.76 22.56 123.59-16.12 123.59-16.12-31.85 38.7-84.36 39.52-104.02 38.31zM469.36 254.52C467.21 156.73 392 75 317.83 75S162 159.86 162 245.93c0 65.55 11.82 140.78 155.83 140.78 74.17 0 153.42-46.15 151.53-132.19zM238.3 346.94s83.83 38.69 123.59 16.12c15.79-9-6.39 15.59-11 20.61q-5.83 1.08-11.71 1.77c-21.66 0.88-70.61-1.68-100.88-38.5z"  horiz-adv-x="1024" />

    
    <glyph glyph-name="xigua" unicode="&#58918;" d=""  horiz-adv-x="1024" />

    
    <glyph glyph-name="jiajianzujianjiahao-copy" unicode="&#59326;" d="M391.32044315 384L150.11217795 142.79173479999997A85.418667 85.418667 0 0 1 149.96132803 21.961328030000004c33.5489167-33.5489167 87.43233928-33.24721757 120.83040677 0.15084992L512 263.32044314999996l241.2082652-241.2082652c33.42823761-33.42823761 87.49267953-33.48857716 120.83040677-0.15084992 33.5489167 33.5489167 33.24721757 87.43233928-0.15084992 120.83040677L632.67955685 384l241.2082652 241.2082652A85.418667 85.418667 0 0 1 874.03867197 746.03867197c-33.5489167 33.5489167-87.43233928 33.24721757-120.83040677-0.15084992L512 504.67955685 270.7917348 745.8878220500001A85.418667 85.418667 0 0 1 149.96132803 746.03867197c-33.5489167-33.5489167-33.24721757-87.43233928 0.15084992-120.83040677L391.32044315 384z"  horiz-adv-x="1024" />

    


  </font>
</defs>
</svg>
